<?xml version="1.0" standalone="no"?>
<!DOCTYPE svg PUBLIC "-//W3C//DTD SVG 20010904//EN"
 "http://www.w3.org/TR/2001/REC-SVG-20010904/DTD/svg10.dtd">
<svg version="1.0" xmlns="http://www.w3.org/2000/svg"
 width="1920.000000pt" height="1920.000000pt" viewBox="0 0 1920.000000 1920.000000"
 preserveAspectRatio="xMidYMid meet">

<g transform="translate(0.000000,1920.000000) scale(0.100000,-0.100000)"
fill="#000000" stroke="none">
<path d="M8320 13370 c-605 -9 -1002 -22 -935 -31 28 -4 160 -6 295 -4 135 1
223 -1 195 -3 l-50 -6 55 -5 c52 -6 54 -7 55 -36 0 -44 28 -40 29 5 1 19 -2
38 -7 41 -5 4 188 10 428 14 278 5 440 4 446 -2 7 -7 -54 -10 -170 -8 -143 1
-181 -2 -181 -12 0 -9 -14 -13 -40 -13 -22 0 -40 4 -40 10 0 15 -189 8 -202
-7 -8 -10 -13 -9 -25 2 -9 10 -34 15 -70 15 -68 0 -64 -9 9 -20 51 -7 51 -8
-29 -9 -68 -1 -83 2 -83 14 0 8 -4 15 -10 15 -5 0 -10 -9 -10 -20 0 -23 18
-28 110 -33 42 -3 34 -4 -23 -3 -78 1 -102 -4 -79 -17 4 -3 79 -8 167 -11 388
-17 585 -26 657 -32 54 -5 87 -3 109 6 20 9 33 10 37 3 9 -13 92 -22 267 -28
77 -3 244 -11 370 -18 127 -8 253 -14 280 -14 73 -1 290 -12 450 -23 77 -5
196 -10 264 -10 68 0 126 -2 130 -4 3 -2 87 -7 186 -10 99 -4 239 -9 310 -12
81 -3 141 -1 158 5 16 6 26 7 23 2 -6 -10 26 -21 62 -21 13 0 22 6 22 15 0 18
-16 20 -24 3 -3 -10 -8 -9 -18 3 -7 9 -22 19 -33 22 -17 4 -17 5 3 6 13 0 49
-7 80 -16 52 -15 55 -17 32 -25 -22 -7 -22 -7 6 -3 30 4 100 -8 111 -19 6 -6
-11 -25 -187 -211 -41 -44 -122 -132 -180 -195 -134 -145 -217 -235 -306 -330
-39 -41 -124 -133 -188 -205 -145 -160 -281 -308 -322 -351 -17 -18 -43 -36
-57 -39 -14 -4 -99 -2 -189 4 -90 6 -224 13 -298 16 -74 3 -247 13 -385 20
-137 8 -459 26 -715 40 -470 25 -618 33 -1080 60 -140 8 -383 21 -540 30 -157
8 -492 26 -745 40 -516 28 -1010 53 -1040 54 -11 0 -141 7 -290 15 -148 9
-299 16 -335 17 -36 0 -164 6 -285 14 -121 8 -263 13 -315 11 -52 -2 -74 -1
-47 1 45 4 68 23 28 23 -11 0 -95 18 -188 41 -92 22 -190 44 -218 49 -45 7
-240 56 -740 185 -99 26 -211 55 -250 66 -38 10 -76 19 -85 18 -18 -1 28 -14
475 -135 188 -51 240 -67 245 -73 3 -4 20 -13 39 -21 32 -13 33 -15 26 -54 -3
-23 -17 -124 -30 -226 -14 -102 -47 -340 -75 -530 -28 -190 -62 -421 -75 -515
-13 -93 -40 -278 -60 -410 -20 -132 -37 -268 -36 -303 0 -34 18 -180 40 -325
34 -218 59 -392 87 -582 2 -16 22 -156 44 -310 22 -154 42 -296 45 -315 3 -19
14 -98 25 -175 11 -77 24 -170 29 -206 9 -71 29 -112 49 -104 8 3 10 0 6 -6
-8 -14 33 -7 141 21 39 10 106 25 150 34 44 8 150 31 235 50 138 31 181 36
395 46 132 6 251 14 265 18 14 3 88 7 165 7 143 1 358 11 454 21 29 3 119 7
200 9 80 2 238 8 351 14 113 6 255 13 315 16 61 3 288 14 505 25 217 11 492
24 610 30 118 5 301 14 405 20 105 5 321 17 480 25 756 39 869 46 876 56 9 16
80 21 106 8 26 -14 453 4 462 19 10 16 130 26 146 12 11 -9 62 -10 227 -1 117
6 260 11 318 11 l105 0 95 -102 c52 -55 102 -112 110 -124 9 -13 38 -47 66
-76 27 -29 135 -145 239 -258 263 -286 408 -442 495 -535 41 -44 104 -111 139
-148 35 -38 60 -72 55 -76 -5 -5 -49 -20 -99 -36 -49 -15 -135 -42 -190 -60
-55 -18 -134 -42 -175 -55 -41 -12 -97 -30 -125 -40 -27 -10 -93 -31 -145 -45
-52 -15 -99 -32 -105 -37 -6 -6 171 -7 500 -3 439 5 2518 10 2750 7 171 -3
4333 7 4375 10 25 2 68 5 96 6 49 2 53 4 69 38 9 19 14 42 11 50 -7 17 10 19
18 2 3 -7 4 -2 3 12 -1 19 3 25 18 25 15 0 21 8 23 34 3 26 6 31 13 20 7 -10
8 -7 4 11 -3 14 -7 51 -8 82 l-2 58 -49 0 c-46 0 -48 1 -30 15 17 13 17 14 2
15 -23 0 -24 20 -1 20 13 0 14 3 5 12 -9 9 -20 7 -49 -6 l-38 -17 3 -109 c3
-75 0 -110 -7 -110 -6 0 -12 -15 -12 -32 l-1 -33 -7 29 c-9 41 -28 43 -40 4
-9 -31 -9 -32 -10 -6 -1 25 -21 52 -21 29 0 -6 -18 -11 -40 -11 -22 0 -40 -4
-40 -10 0 -6 -33 -10 -80 -10 -50 0 -80 -4 -80 -11 0 -6 -9 -4 -21 4 -11 8
-29 13 -40 10 -10 -3 -19 0 -19 6 0 15 -105 15 -133 0 -16 -9 -22 -9 -25 0 -2
6 -21 11 -43 11 -32 0 -39 3 -39 20 0 19 -4 20 -117 14 -65 -4 -120 -8 -122
-10 -2 -2 32 -4 77 -4 45 0 82 -4 82 -9 0 -12 -118 -22 -173 -15 -40 6 -47 4
-47 -11 0 -11 -5 -15 -16 -11 -9 3 -43 6 -75 6 -41 0 -58 3 -53 11 3 6 22 9
43 6 20 -3 28 -3 19 -1 -10 3 -18 9 -18 14 0 11 -73 0 -81 -13 -4 -5 -15 -7
-25 -3 -11 3 -55 8 -99 11 -44 3 -132 12 -195 20 -63 8 -171 19 -240 25 -69 6
-168 14 -220 20 -65 6 -97 6 -101 -2 -4 -7 -8 -7 -10 0 -6 15 -157 24 -161 10
-3 -7 -58 -14 -144 -18 -76 -5 -233 -17 -349 -29 -285 -28 -399 -39 -470 -46
-109 -10 -238 -24 -380 -41 -77 -8 -156 -14 -175 -11 -30 3 -29 4 12 5 26 1
96 9 155 17 125 17 433 51 543 60 41 4 120 13 175 20 97 13 244 30 506 59 146
16 184 32 248 102 24 27 85 92 135 144 111 117 203 215 280 300 33 36 87 94
121 130 34 36 85 92 115 125 29 33 85 94 124 135 39 42 104 112 144 157 69 76
77 83 130 94 68 15 64 12 56 33 -4 11 -18 16 -45 16 -31 0 -39 4 -39 18 0 10
4 22 8 27 14 17 34 90 67 245 31 148 74 347 99 455 64 275 80 347 136 607 33
152 60 295 60 317 0 47 -93 504 -185 911 -63 280 -118 509 -132 550 -17 53
-43 202 -37 212 5 8 17 7 214 -33 80 -17 179 -36 220 -44 41 -8 84 -17 95 -19
59 -13 223 -48 240 -51 11 -2 65 -13 120 -25 55 -11 125 -25 155 -31 30 -5 66
-14 80 -19 38 -14 110 -21 110 -10 0 5 21 19 48 31 l47 21 -60 14 c-64 15
-477 92 -880 164 -60 11 -130 25 -155 30 -25 6 -94 19 -155 30 -85 15 -114 25
-128 41 -42 51 -240 272 -268 299 -8 8 -57 62 -109 120 -52 58 -114 125 -137
150 -23 25 -50 54 -60 66 -17 20 -214 232 -281 304 -19 19 -63 67 -99 107 -39
42 -79 76 -97 82 -17 6 -101 17 -186 25 -295 29 -456 46 -655 70 -110 14 -288
32 -395 41 -194 16 -747 72 -995 101 -71 9 -148 17 -170 19 -22 2 -359 8 -750
14 -390 6 -872 15 -1070 20 -198 6 -508 13 -690 16 -181 3 -431 7 -555 9
l-225 5 40 -19 c22 -11 50 -20 63 -20 12 0 22 -4 22 -9 0 -13 -73 -1 -82 13
-11 17 -809 20 -821 3 -7 -9 -10 -9 -14 1 -2 6 -11 12 -19 12 -8 0 -14 -6 -14
-12 0 -9 -4 -8 -11 2 -8 11 -12 12 -15 3 -4 -10 -10 -10 -26 0 -16 9 -22 9
-25 -1 -3 -6 -10 -9 -16 -5 -7 4 -115 7 -242 6 -185 -1 -211 1 -135 7 52 5
123 6 158 3 43 -4 62 -2 62 6 0 12 -439 13 -1280 1z m840 -20 l-125 -6 159 -2
c88 -1 156 -5 152 -9 -11 -12 -380 -11 -388 0 -4 8 -15 7 -33 -1 -33 -15 -78
-17 -55 -2 13 9 13 11 1 19 -10 6 64 9 200 8 190 -1 200 -1 89 -7z m808 -7
c-10 -2 -26 -2 -35 0 -10 3 -2 5 17 5 19 0 27 -2 18 -5z m65 0 c-7 -2 -19 -2
-25 0 -7 3 -2 5 12 5 14 0 19 -2 13 -5z m110 0 c-13 -2 -33 -2 -45 0 -13 2 -3
4 22 4 25 0 35 -2 23 -4z m-746 -9 c-3 -3 -12 -4 -19 -1 -8 3 -5 6 6 6 11 1
17 -2 13 -5z m106 -1 c-13 -2 -35 -2 -50 0 -16 2 -5 4 22 4 28 0 40 -2 28 -4z
m1334 -9 c-3 -3 -12 -4 -19 -1 -8 3 -5 6 6 6 11 1 17 -2 13 -5z m-2049 -11
c-10 -2 -26 -2 -35 0 -10 3 -2 5 17 5 19 0 27 -2 18 -5z m1425 0 c-7 -2 -21
-2 -30 0 -10 3 -4 5 12 5 17 0 24 -2 18 -5z m701 -12 c41 -15 45 -19 26 -24
-12 -3 -32 -2 -43 3 -14 5 -16 9 -7 10 13 0 13 1 0 10 -8 5 -23 7 -34 4 -12
-4 -16 -2 -12 5 9 15 13 14 70 -8z m-1811 2 c-13 -2 -33 -2 -45 0 -13 2 -3 4
22 4 25 0 35 -2 23 -4z m204 1 c-3 -3 -12 -4 -19 -1 -8 3 -5 6 6 6 11 1 17 -2
13 -5z m-1067 -20 c0 -8 -5 -12 -10 -9 -6 4 -8 11 -5 16 9 14 15 11 15 -7z
m335 6 c-11 -5 -38 -8 -60 -8 l-40 1 45 7 c64 10 78 10 55 0z m208 3 c-13 -2
-33 -2 -45 0 -13 2 -3 4 22 4 25 0 35 -2 23 -4z m-436 -9 c-3 -3 -12 -4 -19
-1 -8 3 -5 6 6 6 11 1 17 -2 13 -5z m513 -4 c-14 -4 -34 -8 -45 -8 l-20 -1 20
9 c11 5 31 8 45 8 l25 0 -25 -8z m293 3 c-7 -2 -19 -2 -25 0 -7 3 -2 5 12 5
14 0 19 -2 13 -5z m397 3 c0 -2 -7 -6 -15 -10 -8 -3 -15 -1 -15 4 0 6 7 10 15
10 8 0 15 -2 15 -4z m1447 -12 c-3 -3 -12 -4 -19 -1 -8 3 -5 6 6 6 11 1 17 -2
13 -5z m46 -11 c3 -5 -11 -9 -32 -10 -27 -1 -31 1 -16 7 26 11 43 12 48 3z
m-136 -9 c-3 -3 -12 -4 -19 -1 -8 3 -5 6 6 6 11 1 17 -2 13 -5z m-1724 -11
c-7 -2 -21 -2 -30 0 -10 3 -4 5 12 5 17 0 24 -2 18 -5z m1917 -3 c13 -8 13
-10 -2 -10 -9 0 -20 5 -23 10 -8 13 5 13 25 0z m115 -35 c22 -6 68 -20 103
-30 34 -10 62 -23 62 -28 0 -5 -8 -6 -17 -2 -42 17 -75 24 -91 19 -15 -5 -15
-4 -2 5 12 8 6 10 -25 8 -28 -1 -39 2 -37 11 1 6 -5 12 -13 12 -8 0 -14 -4
-12 -9 2 -9 -2 -11 -25 -11 -9 0 -9 3 0 12 9 9 7 15 -6 25 -16 14 -15 14 3 7
11 -4 38 -12 60 -19z m-15 -55 c0 -13 -11 -13 -30 0 -12 8 -11 10 8 10 12 0
22 -4 22 -10z m80 -18 c0 -4 -16 -6 -35 -4 -19 2 -35 6 -35 8 0 2 16 4 35 4
19 0 35 -4 35 -8z m5081 -89 c13 -16 12 -17 -3 -4 -17 13 -22 21 -14 21 2 0
10 -8 17 -17z m-4846 -155 c-22 -24 -72 -77 -112 -118 -39 -41 -81 -87 -93
-102 -12 -16 -26 -28 -32 -28 -5 0 8 19 29 43 22 23 73 78 113 122 41 44 85
90 98 103 40 38 38 24 -3 -20z m2433 -215 c-10 -2 -28 -2 -40 0 -13 2 -5 4 17
4 22 1 32 -1 23 -4z m412 -13 c349 -45 698 -177 1015 -385 61 -40 121 -82 135
-93 47 -40 116 -97 165 -137 26 -22 53 -46 59 -53 6 -7 22 -23 34 -35 33 -30
187 -209 196 -227 4 -8 -16 12 -46 45 -158 178 -373 368 -538 476 -170 112
-442 249 -542 274 -16 4 -28 12 -28 18 0 6 -3 8 -6 5 -3 -3 -33 3 -67 13 -193
60 -386 95 -579 108 -128 8 -130 8 -43 10 50 0 160 -8 245 -19z m-3090 -33 c0
-2 -12 -14 -27 -28 l-26 -24 19 27 c16 23 34 36 34 25z m-67 -75 c-10 -10 -32
-33 -49 -52 -16 -19 -41 -44 -54 -55 l-24 -20 20 25 c39 49 108 120 116 120 4
0 0 -8 -9 -18z m3206 -41 c149 -26 187 -35 312 -72 103 -31 398 -148 420 -168
8 -6 62 -40 120 -74 58 -35 146 -94 195 -132 85 -66 110 -88 262 -233 37 -35
70 -66 74 -70 39 -37 160 -214 257 -377 30 -49 62 -101 71 -115 76 -115 202
-519 234 -750 25 -190 29 -497 8 -665 -24 -185 -96 -449 -181 -663 -20 -50
-86 -176 -103 -197 -5 -5 -41 -62 -81 -125 -40 -63 -82 -126 -94 -140 -11 -14
-49 -59 -84 -100 -366 -435 -843 -708 -1414 -812 -163 -29 -508 -36 -681 -13
-376 49 -705 170 -1009 369 -356 233 -623 531 -827 922 -81 155 -177 439 -211
622 -12 71 -13 85 -1 97 12 11 13 30 5 102 -5 48 -7 201 -5 338 3 138 6 267 6
287 0 21 4 35 9 32 6 -3 7 17 3 50 -5 43 -4 57 8 61 10 4 13 17 10 42 -3 19
-1 33 4 30 5 -3 9 7 10 21 1 35 54 223 67 240 6 7 10 34 10 60 0 26 2 39 4 30
3 -10 8 -18 11 -18 14 1 72 157 66 176 -4 15 -4 16 4 5 8 -11 13 -8 26 17 9
17 13 38 10 47 -4 10 -2 15 7 13 7 -2 21 15 32 36 10 21 25 45 33 53 17 17 19
37 2 27 -7 -4 -8 -3 -4 5 4 6 11 9 16 6 5 -3 17 6 27 20 10 13 34 46 53 72 31
43 140 156 140 146 0 -3 12 10 27 29 15 18 32 36 36 39 5 3 8 10 8 15 -1 5 2
9 7 9 4 1 32 25 62 54 30 29 96 87 147 128 50 42 89 81 87 88 -6 15 68 64 93
62 10 0 63 26 118 59 290 176 613 290 930 328 172 21 500 15 664 -13z m-2893
-103 c30 -28 35 -41 40 -88 7 -84 -37 -142 -116 -155 -50 -8 -120 29 -137 73
-8 19 -9 32 -3 32 5 0 10 -6 10 -13 0 -30 49 -60 106 -65 l56 -5 -18 21 c-13
15 -21 18 -30 11 -9 -7 -24 -2 -53 18 -31 22 -39 32 -34 48 4 11 7 35 8 53 2
30 1 31 -17 15 -10 -9 -18 -24 -18 -35 0 -10 -7 -18 -15 -18 -24 0 -18 55 8
86 28 32 76 51 135 53 35 1 49 -5 78 -31z m5161 12 c46 -28 62 -58 64 -121 2
-62 -9 -89 -48 -117 -72 -50 -165 -25 -204 54 -30 63 -22 116 23 155 57 49
115 60 165 29z m-5620 -24 c-9 -7 -17 -16 -17 -20 0 -3 -9 -15 -20 -26 -32
-32 -23 -4 11 35 18 20 34 33 38 30 3 -4 -2 -12 -12 -19z m-73 -97 c-9 -10
-21 -16 -25 -13 -5 3 -9 -1 -9 -9 0 -8 -7 -18 -16 -21 -9 -3 -12 -11 -8 -18 5
-10 4 -10 -7 0 -11 11 -7 19 26 51 40 38 72 47 39 10z m-105 -115 c-19 -21
-49 -54 -68 -74 -19 -19 -47 -55 -63 -79 -20 -32 -35 -45 -53 -46 l-24 -1 21
23 c11 12 25 20 30 17 5 -3 7 -1 6 4 -2 5 34 51 80 102 45 51 82 98 82 103 0
8 4 7 11 0 8 -8 2 -21 -22 -49z m5909 1 c-28 -43 -43 -46 -20 -5 9 16 20 30
25 30 4 0 7 8 8 18 0 11 2 12 6 4 3 -7 -6 -28 -19 -47z m-13298 -45 c0 -5 -4
-10 -10 -10 -5 0 -10 5 -10 10 0 6 5 10 10 10 6 0 10 -4 10 -10z m13045 -40
c3 -5 2 -10 -4 -10 -5 0 -13 5 -16 10 -3 6 -2 10 4 10 5 0 13 -4 16 -10z
m-470 -20 c3 -5 -1 -10 -10 -10 -9 0 -13 5 -10 10 3 6 8 10 10 10 2 0 7 -4 10
-10z m45 -10 c0 -5 11 -10 25 -10 14 0 25 -4 25 -10 0 -12 -2 -12 -37 1 -23 8
-30 7 -40 -7 -16 -21 -17 -10 -3 17 11 20 30 26 30 9z m-12217 -7 c-7 -2 -19
-2 -25 0 -7 3 -2 5 12 5 14 0 19 -2 13 -5z m166 3 c-12 -10 -59 -15 -59 -6 0
5 14 10 32 10 17 0 29 -2 27 -4z m13226 -16 c10 -11 16 -20 13 -20 -3 0 -13 9
-23 20 -10 11 -16 20 -13 20 3 0 13 -9 23 -20z m-1030 1 c-3 -5 9 -11 27 -13
l33 -4 -28 -8 c-31 -9 -97 0 -97 14 0 9 22 17 53 19 10 0 16 -3 12 -8z m145
-30 c0 -6 71 -18 148 -23 6 -1 12 -6 12 -11 0 -7 -109 -5 -178 3 -2 0 0 5 4
11 5 9 -1 10 -21 5 -19 -5 -31 -3 -36 6 -7 11 -9 11 -9 0 0 -7 -5 -10 -11 -6
-18 11 11 24 54 24 20 0 37 -4 37 -9z m-290 -21 c0 -11 -4 -20 -10 -20 -5 0
-10 9 -10 20 0 11 5 20 10 20 6 0 10 -9 10 -20z m1225 0 c10 -11 15 -20 11
-20 -4 0 -16 9 -28 20 -12 11 -17 20 -11 20 5 0 18 -9 28 -20z m-1174 -54
l-20 -21 20 -25 c19 -23 19 -23 9 -2 -15 30 -2 51 17 27 7 -11 13 -25 13 -33
0 -8 8 -26 19 -40 25 -36 38 -77 20 -67 -8 6 -11 4 -7 -6 4 -10 -3 -14 -26
-15 -17 -1 -23 1 -13 3 10 3 14 9 10 16 -11 18 -12 36 -2 43 5 3 7 10 3 15 -4
6 -11 6 -20 -2 -11 -9 -14 -8 -14 2 0 11 -2 11 -10 -1 -7 -11 -10 -5 -10 23 0
35 -14 51 -22 25 -3 -7 -7 -6 -11 5 -3 9 -2 17 3 17 6 0 10 7 10 15 0 8 -4 15
-10 15 -5 0 -10 7 -10 16 0 12 7 14 31 9 24 -6 30 -4 24 5 -6 9 -4 11 4 5 9
-5 7 -13 -8 -29z m522 17 c20 -3 37 -10 37 -15 0 -10 -69 -5 -112 8 -30 9 -21
27 10 19 15 -3 44 -9 65 -12z m101 -20 c8 3 20 -1 27 -9 10 -13 6 -14 -32 -8
-51 8 -53 9 -44 24 5 8 11 8 21 -1 7 -6 20 -9 28 -6z m81 -23 c18 -8 17 -9 -7
-9 -16 -1 -28 4 -28 9 0 12 8 12 35 0z m55 -5 c0 -8 -4 -15 -9 -15 -13 0 -22
16 -14 24 11 11 23 6 23 -9z m-13275 -17 c17 -6 35 -15 40 -20 6 -5 -13 -1
-42 10 -29 11 -54 17 -57 14 -4 -3 -6 0 -6 7 0 9 6 11 18 6 9 -4 31 -12 47
-17z m8178 1 c-21 -21 -43 -19 -43 4 0 8 4 7 9 -2 8 -12 12 -12 26 2 9 10 19
17 23 17 4 0 -3 -10 -15 -21z m5587 -20 c17 -30 6 -34 -14 -4 -9 14 -12 25 -7
25 6 0 15 -9 21 -21z m-322 4 c-10 -2 -26 -2 -35 0 -10 3 -2 5 17 5 19 0 27
-2 18 -5z m57 -3 c3 -5 -1 -10 -9 -10 -9 0 -16 5 -16 10 0 6 4 10 9 10 6 0 13
-4 16 -10z m-13425 -40 c0 -11 -4 -20 -8 -20 -4 0 -8 9 -9 20 -1 11 2 20 8 20
5 0 9 -9 9 -20z m8061 3 c8 -8 8 -13 0 -17 -6 -4 -11 -2 -11 3 0 6 -4 11 -10
11 -5 0 -10 -13 -10 -30 0 -16 -4 -30 -10 -30 -5 0 -10 14 -10 30 0 17 5 30
11 30 5 0 8 4 5 9 -8 13 22 7 35 -6z m-8091 -1 c0 -4 -17 -6 -37 -4 -59 5 -63
10 -10 11 26 1 47 -3 47 -7z m15 -41 c3 -5 1 -12 -5 -16 -5 -3 -10 1 -10 9 0
18 6 21 15 7z m7016 -58 c20 -21 89 -87 153 -148 65 -60 149 -140 187 -176
l69 -65 -5 -59 c-3 -33 -11 -65 -17 -72 -7 -9 -7 -13 1 -13 12 0 15 -32 4 -43
-4 -4 -8 -51 -9 -105 -2 -92 -22 -333 -30 -359 -2 -7 -8 -13 -15 -13 -7 0 -9
22 -4 74 5 46 3 76 -3 80 -6 3 -8 15 -5 26 4 16 2 19 -11 14 -9 -3 -15 -14
-14 -23 2 -11 -5 -16 -24 -16 -14 0 -30 -3 -34 -7 -4 -5 11 -8 34 -8 23 0 42
-4 42 -10 0 -5 -11 -10 -25 -10 -14 0 -25 -4 -25 -8 0 -5 13 -8 29 -7 23 1 27
-2 23 -17 -2 -10 -8 -15 -13 -12 -20 12 -28 -8 -13 -32 14 -21 14 -24 1 -24
-21 0 -29 -27 -16 -52 9 -16 8 -19 -3 -16 -7 3 -14 19 -16 36 -2 18 -7 32 -11
32 -4 0 -15 28 -25 63 -10 34 -22 75 -27 91 -6 19 -5 33 2 42 9 11 8 14 -2 14
-13 0 -35 48 -44 95 -2 11 -10 40 -19 64 -21 57 -20 71 3 71 11 0 23 5 26 10
4 6 16 8 27 4 15 -4 19 -2 18 13 -4 36 11 61 36 61 27 0 39 -12 28 -29 -4 -8
-9 -8 -17 0 -19 19 -28 12 -25 -21 2 -26 8 -34 26 -36 29 -4 23 -27 -7 -26
-11 0 -21 -3 -21 -8 0 -4 -9 -8 -20 -8 -11 0 -20 -4 -20 -10 0 -5 -7 -10 -15
-10 -8 0 -15 7 -15 15 0 8 9 15 21 15 11 0 17 4 14 10 -3 5 -17 9 -31 8 -20
-2 -24 -7 -20 -23 3 -11 6 -27 6 -36 0 -11 9 -16 28 -15 17 1 26 6 24 14 -1 8
3 12 10 9 7 -2 13 -14 12 -26 0 -17 5 -21 28 -21 19 0 28 5 28 16 0 11 -6 15
-20 11 -12 -3 -20 0 -20 7 0 8 14 13 35 14 30 1 34 -2 32 -20 -1 -15 4 -23 16
-26 15 -3 18 2 15 25 -2 18 2 27 10 25 11 -2 13 3 16 41 1 6 -5 11 -11 9 -16
-3 -17 30 -1 46 8 8 9 12 1 12 -6 0 -18 -7 -27 -15 -22 -22 -86 -17 -86 7 0 6
6 5 15 -2 18 -15 85 5 85 26 0 8 5 14 10 14 6 0 10 5 10 11 0 5 -5 7 -10 4
-14 -8 -50 4 -50 17 0 5 7 8 15 4 8 -3 15 -1 15 5 0 6 10 9 22 7 16 -2 24 3
26 17 2 11 1 17 -3 13 -5 -4 -14 -3 -21 3 -20 16 5 40 29 28 9 -6 17 -8 17 -5
0 8 -47 56 -54 56 -4 0 -17 11 -30 25 -23 25 -39 25 -29 -1 3 -8 11 -14 19
-14 8 0 14 -4 14 -10 0 -5 -6 -10 -14 -10 -7 0 -19 -7 -26 -15 -10 -12 -10
-18 0 -30 11 -13 8 -15 -13 -15 -16 0 -27 6 -29 17 -3 14 -17 17 -83 19 -69 1
-74 0 -35 -7 96 -17 109 -22 115 -37 3 -8 0 -19 -6 -23 -18 -11 -39 0 -32 17
3 9 -2 14 -17 14 -18 0 -20 -3 -11 -14 9 -11 8 -15 -5 -20 -21 -8 -37 2 -30
20 3 9 -1 14 -13 14 -12 0 -17 -7 -16 -22 1 -18 9 -24 35 -26 33 -3 63 -29 54
-44 -8 -13 -24 -9 -24 6 0 18 -27 24 -62 15 -23 -6 -28 -4 -28 10 0 10 -20 80
-45 157 -25 76 -45 143 -45 149 0 7 -16 61 -35 121 -19 60 -35 112 -35 117 0
12 42 -19 81 -60z m988 55 c-3 -27 2 -38 16 -38 8 0 15 -9 15 -20 0 -11 -4
-20 -10 -20 -5 0 -10 -9 -10 -20 0 -11 -6 -19 -12 -17 -8 1 -12 -6 -10 -17 2
-10 -1 -15 -6 -12 -12 7 -35 96 -27 104 3 3 5 -2 5 -11 0 -10 5 -14 15 -11 17
7 21 44 4 44 -8 0 -8 5 1 15 15 18 21 19 19 3z m4590 -101 c27 -51 29 -60 17
-73 -8 -7 -22 -11 -30 -8 -9 3 -16 1 -16 -5 0 -6 9 -11 19 -11 14 0 18 -5 14
-20 -3 -11 -10 -20 -15 -20 -6 0 -8 7 -4 15 3 9 0 15 -9 15 -8 0 -15 6 -15 13
0 6 -7 25 -15 41 -9 17 -13 38 -8 50 6 20 7 20 13 -4 l7 -25 8 28 c10 38 -9
59 -30 31 -13 -16 -16 -17 -25 -4 -15 23 -12 29 10 23 13 -3 22 1 26 12 8 21
15 14 53 -58z m1148 41 c-3 -7 -5 -2 -5 12 0 14 2 19 5 13 2 -7 2 -19 0 -25z
m-7020 -34 c1 -18 -2 -23 -9 -16 -6 6 -8 18 -5 26 9 22 12 20 14 -10z m-6797
-9 c-6 -7 -20 -11 -31 -8 -15 4 -17 9 -9 17 8 8 13 7 20 -4 8 -13 10 -12 10 3
0 10 5 15 10 12 8 -5 8 -11 0 -20z m6597 19 c-3 -3 -12 -4 -19 -1 -8 3 -5 6 6
6 11 1 17 -2 13 -5z m142 -10 c7 -2 10 -11 7 -19 -3 -9 -24 -97 -46 -198 -41
-183 -55 -246 -90 -392 -10 -44 -34 -144 -52 -222 -18 -78 -34 -140 -36 -138
-3 3 24 154 51 285 6 30 10 61 9 68 -2 6 2 12 7 12 6 0 8 7 5 15 -7 17 25 175
37 189 5 6 9 21 9 34 0 13 3 21 8 19 4 -3 7 14 7 36 1 23 11 77 23 119 12 43
22 84 22 92 0 24 -37 29 -68 9 -15 -10 -40 -25 -56 -33 -35 -18 -76 -68 -93
-112 l-12 -33 6 40 c3 22 10 42 14 43 14 5 11 22 -3 20 -7 -2 -13 3 -14 10 -1
6 -2 16 -3 21 -1 11 -49 18 -181 26 -182 12 -525 43 -480 44 25 0 167 -8 315
-19 317 -23 375 -24 410 -8 24 11 25 13 8 19 -13 6 -10 7 12 7 44 -1 134 25
139 39 3 7 2 12 -2 11 -9 -3 -72 19 -72 25 0 5 99 -3 119 -9z m1277 -25 c-20
-39 -20 -47 -2 -65 19 -18 26 -18 26 1 0 8 -6 15 -12 15 -9 0 -8 3 2 10 30 18
33 -9 6 -54 -14 -24 -26 -52 -26 -61 0 -11 -5 -15 -14 -12 -10 4 -13 1 -10 -8
6 -16 -20 -48 -30 -38 -3 4 -6 -2 -6 -13 -1 -18 -1 -18 -12 1 -6 11 -15 22
-19 25 -4 3 2 29 13 58 11 29 22 51 25 48 3 -3 -2 -23 -11 -46 -21 -53 -20
-63 4 -48 14 9 18 19 13 38 -6 23 -5 24 12 10 14 -11 17 -11 11 -1 -5 8 -3 17
5 22 11 7 10 12 -8 26 l-21 17 30 59 c16 33 32 57 35 54 3 -3 -2 -20 -11 -38z
m-7989 9 c-3 -8 -6 -5 -6 6 -1 11 2 17 5 13 3 -3 4 -12 1 -19z m8392 -8 c-13
-16 -24 -28 -27 -26 -5 6 31 55 41 56 4 0 -2 -13 -14 -30z m3941 23 c0 -5 12
-23 28 -40 28 -33 76 -113 68 -113 -2 0 -20 24 -40 53 -20 28 -45 64 -57 80
-11 15 -16 27 -10 27 6 0 11 -3 11 -7z m-12443 -70 c-3 -10 -5 -4 -5 12 0 17
2 24 5 18 2 -7 2 -21 0 -30z m94 10 c-12 -20 -14 -14 -5 12 4 9 9 14 11 11 3
-2 0 -13 -6 -23z m5647 0 c-15 -2 -42 -2 -60 0 -18 2 -6 4 27 4 33 0 48 -2 33
-4z m2710 -28 c-6 -14 -15 -25 -20 -25 -4 0 -8 -6 -8 -12 0 -12 -9 -25 -60
-88 -20 -24 -20 -24 0 12 12 20 28 42 36 48 7 7 14 17 14 22 0 8 41 68 47 68
1 0 -3 -11 -9 -25z m6619 9 c-3 -3 -12 -4 -19 -1 -8 3 -5 6 6 6 11 1 17 -2 13
-5z m-7056 -27 c-10 -9 -11 -8 -5 6 3 10 9 15 12 12 3 -3 0 -11 -7 -18z
m-1184 -9 c-3 -8 -6 -5 -6 6 -1 11 2 17 5 13 3 -3 4 -12 1 -19z m5991 -34 c18
-31 35 -68 39 -82 3 -15 12 -33 20 -40 15 -15 17 -32 4 -32 -4 0 -18 23 -29
50 -22 52 -24 54 -57 40 -15 -6 -16 -9 -4 -9 19 -1 52 -35 42 -44 -3 -4 -1 -7
6 -7 16 0 10 -42 -6 -47 -6 -2 -28 28 -47 67 -37 73 -46 107 -24 94 8 -5 9 -2
5 10 -4 10 -3 15 3 11 6 -3 7 -17 4 -29 -4 -18 -1 -25 15 -29 31 -8 32 1 5 50
-27 51 -27 53 -16 53 4 0 22 -25 40 -56z m-12772 13 c8 3 14 0 14 -6 0 -6 -4
-11 -10 -11 -5 0 -10 -9 -10 -20 0 -11 -4 -20 -9 -20 -5 0 -7 9 -4 20 4 14 0
20 -11 20 -17 0 -21 12 -9 24 4 3 11 2 16 -3 5 -5 16 -7 23 -4z m7939 -26
c-21 -43 -29 -39 -8 4 9 19 18 33 21 31 2 -2 -4 -18 -13 -35z m-8002 9 c-3
-11 -7 -20 -9 -20 -2 0 -4 9 -4 20 0 11 4 20 9 20 5 0 7 -9 4 -20z m6834 -2
c-3 -8 -6 -5 -6 6 -1 11 2 17 5 13 3 -3 4 -12 1 -19z m6158 12 c3 -5 1 -10 -4
-10 -6 0 -11 5 -11 10 0 6 2 10 4 10 3 0 8 -4 11 -10z m-411 -36 c9 -24 2 -26
-12 -4 -7 11 -8 20 -3 20 5 0 12 -7 15 -16z m-5717 -16 c-3 -8 -6 -5 -6 6 -1
11 2 17 5 13 3 -3 4 -12 1 -19z m6148 12 c3 -5 1 -10 -4 -10 -6 0 -11 5 -11
10 0 6 2 10 4 10 3 0 8 -4 11 -10z m47 -37 c2 -10 -4 -26 -14 -35 -14 -14 -18
-15 -18 -4 0 8 4 17 10 21 5 3 7 12 3 20 -3 8 -1 15 5 15 5 0 12 -8 14 -17z
m-6205 -15 c-3 -8 -6 -5 -6 6 -1 11 2 17 5 13 3 -3 4 -12 1 -19z m1107 -18
c-10 -16 -20 -27 -22 -25 -5 5 26 55 34 55 3 0 -3 -13 -12 -30z m4664 -5 c-3
-3 -9 2 -12 12 -6 14 -5 15 5 6 7 -7 10 -15 7 -18z m-4274 -9 c-3 -9 -10 -16
-15 -16 -5 0 -4 9 3 20 14 22 21 20 12 -4z m4765 -19 c1 -5 -3 -5 -9 -2 -5 3
-10 16 -9 28 0 21 1 21 9 2 5 -11 9 -24 9 -28z m-6281 -49 c-10 -46 -21 -94
-24 -107 -3 -13 -7 -21 -10 -18 -7 7 38 207 47 207 3 0 -2 -37 -13 -82z m6231
51 c-16 -10 -23 -4 -14 10 3 6 11 8 17 5 6 -4 5 -9 -3 -15z m-13086 -9 c3 -11
1 -20 -4 -20 -5 0 -9 9 -9 20 0 11 2 20 4 20 2 0 6 -9 9 -20z m6596 13 c0 -5
-4 -17 -9 -28 -8 -18 -9 -17 -9 8 -1 15 4 27 9 27 6 0 10 -3 9 -7z m1425 -35
c19 -13 26 -9 26 17 0 14 5 25 10 25 12 0 14 -47 3 -52 -5 -1 -16 -19 -26 -38
l-18 -35 5 33 c3 17 2 32 -3 32 -4 0 -13 11 -19 25 -15 33 -15 46 0 20 6 -11
16 -23 22 -27z m-7997 0 c-3 -8 -6 -5 -6 6 -1 11 2 17 5 13 3 -3 4 -12 1 -19z
m7926 7 c-3 -9 -8 -14 -10 -11 -3 3 -2 9 2 15 9 16 15 13 8 -4z m-3334 -4 c16
-10 6 -31 -15 -31 -8 0 -14 9 -14 20 0 22 7 25 29 11z m3824 -11 c-5 -19 -23
-29 -23 -12 0 7 20 32 26 32 1 0 0 -9 -3 -20z m4462 -11 c-5 -15 -4 -19 4 -15
14 9 14 0 1 -25 -12 -21 -1 -25 19 -6 11 10 13 6 8 -20 -4 -18 -3 -33 2 -33 5
0 11 -18 15 -40 5 -30 13 -44 32 -52 14 -6 23 -17 20 -24 -3 -8 2 -21 11 -29
11 -11 12 -20 5 -27 -7 -7 -18 2 -36 28 -14 21 -26 43 -26 48 0 10 -52 118
-60 126 -6 6 -30 58 -30 66 0 3 4 3 9 0 5 -3 11 1 15 9 9 23 18 18 11 -6z
m-5365 -31 c-12 -12 -20 -16 -16 -8 3 8 9 23 12 33 4 12 10 15 17 8 6 -6 2
-17 -13 -33z m464 26 c3 -8 2 -12 -4 -9 -6 3 -10 10 -10 16 0 14 7 11 14 -7z
m4976 -62 c0 -7 -5 -10 -10 -7 -6 4 -8 10 -5 14 2 5 -2 17 -10 27 -8 10 -14
26 -14 34 0 18 38 -49 39 -68z m-6410 8 c-10 -55 -20 -77 -20 -46 0 23 22 108
26 103 2 -2 0 -28 -6 -57z m1370 52 c0 -5 -7 -17 -16 -28 -8 -10 -14 -14 -11
-9 2 6 7 18 10 28 7 17 17 23 17 9z m6095 -2 c3 -5 1 -10 -4 -10 -6 0 -11 5
-11 10 0 6 2 10 4 10 3 0 8 -4 11 -10z m-14044 -43 c-8 -8 -11 -5 -11 9 0 27
14 41 18 19 2 -9 -1 -22 -7 -28z m8007 2 c-3 -8 -7 -3 -11 10 -4 17 -3 21 5
13 5 -5 8 -16 6 -23z m5248 7 c15 -16 19 -36 7 -36 -5 0 -13 11 -20 25 -13 28
-8 32 13 11z m803 -46 c0 -10 -3 -8 -9 5 -12 27 -12 43 0 25 5 -8 9 -22 9 -30z
m-6163 -29 c-14 -22 -26 -46 -26 -52 0 -7 -3 -9 -7 -5 -4 3 6 32 22 62 16 31
31 51 33 46 2 -6 -8 -29 -22 -51z m5330 43 c-4 -9 -1 -23 5 -30 6 -8 8 -14 4
-14 -4 0 -13 8 -20 17 -9 12 -9 20 -1 29 15 18 19 17 12 -2z m-5729 0 c-3 -3
-12 -4 -19 -1 -8 3 -5 6 6 6 11 1 17 -2 13 -5z m523 -3 c0 -5 -7 -14 -15 -21
-10 -8 -13 -20 -9 -33 6 -20 5 -20 -10 -5 -13 14 -14 21 -4 42 10 24 38 36 38
17z m-8033 -33 c-3 -7 -5 -2 -5 12 0 14 2 19 5 13 2 -7 2 -19 0 -25z m13332
-75 c1 -29 -3 -53 -9 -53 -6 0 -10 32 -9 78 1 87 16 66 18 -25z m-5877 75 c-9
-9 -15 -9 -24 0 -9 9 -7 12 12 12 19 0 21 -3 12 -12z m58 8 c0 -11 -19 -15
-25 -6 -3 5 1 10 9 10 9 0 16 -2 16 -4z m5514 -12 c9 -24 2 -26 -12 -4 -7 11
-8 20 -3 20 5 0 12 -7 15 -16z m256 6 c0 -5 -5 -10 -11 -10 -5 0 -7 5 -4 10 3
6 8 10 11 10 2 0 4 -4 4 -10z m-5330 -4 c0 -3 -4 -8 -10 -11 -5 -3 -10 -1 -10
4 0 6 5 11 10 11 6 0 10 -2 10 -4z m5260 -16 c0 -5 -5 -10 -11 -10 -5 0 -7 5
-4 10 3 6 8 10 11 10 2 0 4 -4 4 -10z m-6643 -22 c-3 -8 -6 -5 -6 6 -1 11 2
17 5 13 3 -3 4 -12 1 -19z m783 -2 c0 -13 3 -33 6 -43 5 -16 4 -16 -10 1 -18
22 -22 66 -6 66 6 0 10 -11 10 -24z m-500 5 c0 -6 -4 -13 -10 -16 -5 -3 -10 1
-10 9 0 9 5 16 10 16 6 0 10 -4 10 -9z m1133 -12 c4 -16 3 -18 -9 -8 -16 13
-19 29 -5 29 5 0 11 -9 14 -21z m5298 7 c-7 -8 -21 -12 -32 -9 -16 5 -18 8 -7
14 7 5 21 9 32 9 15 0 16 -3 7 -14z m-6381 -12 c0 -8 -5 -12 -10 -9 -6 4 -8
11 -5 16 9 14 15 11 15 -7z m477 -16 c-3 -8 -6 -5 -6 6 -1 11 2 17 5 13 3 -3
4 -12 1 -19z m37 7 c-4 -8 -10 -12 -15 -9 -14 8 -10 24 6 24 9 0 12 -6 9 -15z
m511 5 c3 -5 1 -10 -4 -10 -6 0 -11 5 -11 10 0 6 2 10 4 10 3 0 8 -4 11 -10z
m5125 0 c0 -5 -2 -10 -4 -10 -3 0 -8 5 -11 10 -3 6 -1 10 4 10 6 0 11 -4 11
-10z m307 -22 c-3 -7 -5 -2 -5 12 0 14 2 19 5 13 2 -7 2 -19 0 -25z m-5387
-20 c0 -35 -17 -26 -18 10 -1 27 1 33 8 22 5 -8 10 -23 10 -32z m-1139 -4 c-9
-28 -9 -29 -10 -3 -1 14 2 29 6 32 11 12 13 2 4 -29z m6469 27 c0 -11 -26 -22
-34 -14 -12 12 -5 23 14 23 11 0 20 -4 20 -9z m-5399 -34 c-8 -8 -11 -7 -11 4
0 9 3 19 7 23 4 4 9 2 11 -4 3 -7 -1 -17 -7 -23z m39 7 c0 -14 -4 -23 -9 -20
-5 3 -7 15 -4 26 7 28 13 25 13 -6z m397 -26 c-3 -8 -6 -5 -6 6 -1 11 2 17 5
13 3 -3 4 -12 1 -19z m4940 16 c-3 -3 -12 -4 -19 -1 -8 3 -5 6 6 6 11 1 17 -2
13 -5z m-5456 -61 c-11 -21 -20 -35 -21 -31 0 12 33 78 38 74 2 -2 -6 -21 -17
-43z m34 -23 c-27 -53 -27 -79 0 -44 11 14 15 15 14 4 -4 -38 1 -44 17 -24 17
21 15 13 -5 -28 -8 -16 -21 -28 -30 -29 -12 0 -11 -3 4 -9 11 -5 14 -9 8 -9
-7 -1 -13 -10 -13 -21 0 -11 -4 -20 -10 -20 -5 0 -10 -4 -10 -10 0 -5 -18 -47
-39 -92 -21 -46 -47 -102 -57 -125 -10 -24 -21 -43 -26 -43 -4 0 -7 -3 -7 -7
3 -11 -18 -63 -52 -130 l-29 -58 5 99 c6 110 7 112 146 396 36 74 74 154 85
176 10 23 20 38 22 34 2 -5 -9 -32 -23 -60z m5430 50 c3 -6 -1 -7 -9 -4 -18 7
-21 14 -7 14 6 0 13 -4 16 -10z m50 -27 c1 -15 5 -53 9 -83 4 -38 3 -47 -3
-28 -12 36 -25 155 -16 146 4 -4 8 -19 10 -35z m-5405 0 c0 -22 -2 -25 -10
-13 -13 20 -13 40 0 40 6 0 10 -12 10 -27z m5369 -11 c7 -14 6 -18 -8 -18 -9
0 -17 8 -17 18 0 10 4 18 8 18 4 0 12 -8 17 -18z m-6492 -24 c-3 -7 -5 -2 -5
12 0 14 2 19 5 13 2 -7 2 -19 0 -25z m6266 -8 c-5 -29 -7 -31 -14 -15 -11 28
-11 37 1 30 6 -3 10 2 10 11 0 10 2 15 5 12 3 -3 2 -20 -2 -38z m-6546 8 c-3
-8 -6 -5 -6 6 -1 11 2 17 5 13 3 -3 4 -12 1 -19z m6593 12 c0 -5 -4 -10 -10
-10 -5 0 -10 5 -10 10 0 6 5 10 10 10 6 0 10 -4 10 -10z m-6286 -54 c-3 -15
-8 -25 -11 -23 -2 3 -1 17 3 31 3 15 8 25 11 23 2 -3 1 -17 -3 -31z m6306 24
c0 -5 -2 -10 -4 -10 -3 0 -8 5 -11 10 -3 6 -1 10 4 10 6 0 11 -4 11 -10z m160
0 c0 -5 -5 -10 -11 -10 -5 0 -7 5 -4 10 3 6 8 10 11 10 2 0 4 -4 4 -10z
m-5519 -33 c-10 -9 -11 -8 -5 6 3 10 9 15 12 12 3 -3 0 -11 -7 -18z m5539 -2
c0 -9 -6 -12 -16 -8 -13 5 -13 7 -2 14 17 11 18 11 18 -6z m-6808 -17 c-7 -7
-12 -8 -12 -2 0 14 12 26 19 19 2 -3 -1 -11 -7 -17z m6661 -26 c5 -7 7 -15 3
-19 -9 -10 -15 0 -20 33 -2 16 -1 22 1 14 3 -8 10 -21 16 -28z m-73 19 c0 -11
5 -23 10 -26 6 -3 10 -11 10 -17 0 -7 -5 -7 -14 1 -16 13 -27 61 -15 61 5 0 9
-9 9 -19z m-5338 -13 c-7 -7 -12 -8 -12 -2 0 14 12 26 19 19 2 -3 -1 -11 -7
-17z m5374 13 c-4 -5 0 -11 6 -14 7 -2 9 -8 5 -13 -4 -5 -12 -2 -17 6 -13 20
-12 30 1 30 5 0 8 -4 5 -9z m1014 -11 c0 -5 -5 -10 -11 -10 -5 0 -7 5 -4 10 3
6 8 10 11 10 2 0 4 -4 4 -10z m-7340 -50 c-6 -23 -14 -40 -16 -37 -3 3 0 24 6
47 6 23 14 40 16 37 3 -3 0 -24 -6 -47z m-6300 26 c0 -3 -4 -8 -10 -11 -5 -3
-10 -1 -10 4 0 6 5 11 10 11 6 0 10 -2 10 -4z m12630 -46 c0 -5 -5 -10 -11
-10 -5 0 -7 5 -4 10 3 6 8 10 11 10 2 0 4 -4 4 -10z m-6650 -34 c0 -3 -4 -8
-10 -11 -5 -3 -10 -1 -10 4 0 6 5 11 10 11 6 0 10 -2 10 -4z m297 -18 c-3 -8
-6 -5 -6 6 -1 11 2 17 5 13 3 -3 4 -12 1 -19z m6462 -43 c0 -5 -6 1 -14 15 -8
14 -14 30 -14 35 0 6 6 -1 14 -15 8 -14 14 -29 14 -35z m-6542 3 c-3 -8 -6 -5
-6 6 -1 11 2 17 5 13 3 -3 4 -12 1 -19z m64 -1 c-10 -9 -11 -8 -5 6 3 10 9 15
12 12 3 -3 0 -11 -7 -18z m6459 -17 c0 -5 -2 -10 -4 -10 -3 0 -8 5 -11 10 -3
6 -1 10 4 10 6 0 11 -4 11 -10z m-6533 -22 c-3 -8 -6 -5 -6 6 -1 11 2 17 5 13
3 -3 4 -12 1 -19z m-17 -75 c-10 -16 -11 -15 -6 7 3 14 6 32 7 40 1 8 4 5 6
-7 2 -12 -1 -30 -7 -40z m-23 5 c-3 -8 -6 -5 -6 6 -1 11 2 17 5 13 3 -3 4 -12
1 -19z m883 -13 c-7 -9 -15 -13 -18 -10 -3 2 1 11 8 20 7 9 15 13 18 10 3 -2
-1 -11 -8 -20z m48 -27 c-2 -18 -6 -31 -9 -28 -3 3 -13 -1 -22 -9 -10 -7 -17
-9 -17 -3 0 6 -3 18 -7 28 -5 13 -3 16 10 11 11 -4 18 1 22 14 10 31 27 22 23
-13z m-941 -10 c-3 -8 -6 -5 -6 6 -1 11 2 17 5 13 3 -3 4 -12 1 -19z m83 12
c0 -5 -4 -10 -10 -10 -5 0 -10 5 -10 10 0 6 5 10 10 10 6 0 10 -4 10 -10z
m-63 -32 c-3 -7 -5 -2 -5 12 0 14 2 19 5 13 2 -7 2 -19 0 -25z m49 -15 c-18
-74 -28 -105 -31 -101 -3 2 -1 20 4 39 5 19 12 46 15 62 4 15 9 27 12 27 4 0
3 -12 0 -27z m804 8 c0 -11 4 -22 9 -25 10 -7 24 -64 22 -88 -1 -10 4 -18 11
-18 9 0 14 13 15 36 1 20 6 41 12 47 13 13 15 -55 5 -140 -7 -52 -24 -65 -24
-17 0 13 -4 24 -10 24 -5 0 -10 5 -10 10 0 6 8 10 17 10 14 0 13 3 -5 16 -12
8 -22 26 -22 39 0 13 -4 26 -9 29 -5 3 -11 18 -13 33 -3 16 -9 36 -13 46 -4
10 -3 17 4 17 6 0 11 -9 11 -19z m-883 -23 c-3 -8 -6 -5 -6 6 -1 11 2 17 5 13
3 -3 4 -12 1 -19z m930 -10 c-3 -8 -6 -5 -6 6 -1 11 2 17 5 13 3 -3 4 -12 1
-19z m-940 -30 c-3 -8 -6 -5 -6 6 -1 11 2 17 5 13 3 -3 4 -12 1 -19z m13 -58
c-7 -33 -15 -59 -17 -56 -2 2 1 31 8 65 7 33 15 58 17 56 3 -2 -1 -32 -8 -65z
m6836 -32 c16 -113 17 -131 5 -123 -6 3 -10 13 -9 23 0 9 -5 51 -11 92 -12 88
-13 116 -4 107 3 -4 12 -48 19 -99z m-6869 10 c-3 -8 -6 -5 -6 6 -1 11 2 17 5
13 3 -3 4 -12 1 -19z m-7 -159 c-20 -90 -30 -118 -30 -88 0 23 44 202 48 191
1 -5 -7 -51 -18 -103z m37 -41 c-3 -8 -6 -5 -6 6 -1 11 2 17 5 13 3 -3 4 -12
1 -19z m6607 -182 c-3 -15 -8 -25 -11 -23 -2 3 -1 17 3 31 3 15 8 25 11 23 2
-3 1 -17 -3 -31z m-35 -88 c-11 -29 -25 -57 -30 -63 -6 -5 -3 8 7 30 9 22 20
50 25 63 5 12 11 22 14 22 2 0 -5 -24 -16 -52z m-48 -115 c-8 -15 -10 -15 -11
-2 0 17 10 32 18 25 2 -3 -1 -13 -7 -23z m-38 -88 c-3 -9 -8 -14 -10 -11 -3 3
-2 9 2 15 9 16 15 13 8 -4z m-53 -130 c-12 -31 -24 -54 -26 -52 -2 2 6 29 19
60 12 30 23 54 26 52 2 -2 -7 -29 -19 -60z m-6453 -331 c-3 -3 -12 -4 -19 -1
-8 3 -5 6 6 6 11 1 17 -2 13 -5z m-20 -270 c-3 -3 -12 -4 -19 -1 -8 3 -5 6 6
6 11 1 17 -2 13 -5z m1318 -298 l20 -18 -20 10 c-11 6 -29 21 -40 33 -20 24
-20 24 0 9 11 -8 29 -23 40 -34z m-1145 2 c0 -11 -59 -9 -85 2 -15 7 -6 9 33
8 28 -1 52 -5 52 -10z m1201 -54 c13 -14 17 -23 9 -19 -13 5 -46 45 -37 45 2
0 14 -11 28 -26z m-7551 -342 c0 -4 -39 -19 -87 -34 -124 -38 -143 -42 -143
-29 0 6 8 11 18 12 9 0 53 13 97 29 83 29 115 35 115 22z m6771 -19 c13 -16
12 -17 -3 -4 -10 7 -18 15 -18 17 0 8 8 3 21 -13z m552 -30 c-7 -2 -19 -2 -25
0 -7 3 -2 5 12 5 14 0 19 -2 13 -5z m-7378 -13 c-11 -5 -29 -9 -40 -9 -17 -1
-17 1 -5 9 8 5 26 9 40 9 23 0 23 -1 5 -9z m7742 -36 c-3 -3 -12 -4 -19 -1 -8
3 -5 6 6 6 11 1 17 -2 13 -5z m-7930 -20 c-3 -3 -12 -4 -19 -1 -8 3 -5 6 6 6
11 1 17 -2 13 -5z m30 -14 c1 -11 -2 -18 -8 -15 -11 7 -12 35 -1 35 4 0 8 -9
9 -20z m12986 -82 c56 -40 73 -125 37 -183 -53 -85 -199 -83 -239 3 -12 25
-15 110 -5 136 7 18 62 54 102 66 35 11 68 4 105 -22z m-5186 -8 c17 -16 36
-50 43 -74 11 -39 10 -49 -9 -90 -57 -130 -256 -85 -260 57 -1 54 14 92 42
104 56 26 75 32 113 32 32 1 47 -5 71 -29z m7143 -810 c0 -5 -13 -10 -30 -10
-16 0 -30 5 -30 10 0 6 14 10 30 10 17 0 30 -4 30 -10z m-935 -211 c-42 -9
-113 -11 -118 -1 -3 4 29 7 72 8 49 0 66 -2 46 -7z m170 1 c47 -7 45 -7 -32
-9 -50 0 -83 3 -83 9 0 11 43 12 115 0z m235 -30 c0 -5 -7 -10 -15 -10 -8 0
-15 5 -15 10 0 6 7 10 15 10 8 0 15 -4 15 -10z m47 4 c-3 -3 -12 -4 -19 -1 -8
3 -5 6 6 6 11 1 17 -2 13 -5z m-3419 -21 c-10 -2 -28 -2 -40 0 -13 2 -5 4 17
4 22 1 32 -1 23 -4z m-99 -7 c-2 -2 -31 -6 -64 -9 -37 -3 -51 -2 -35 3 25 8
107 13 99 6z m3744 -3 c-13 -2 -33 -2 -45 0 -13 2 -3 4 22 4 25 0 35 -2 23 -4z
m-3986 -19 c-3 -3 -12 -4 -19 -1 -8 3 -5 6 6 6 11 1 17 -2 13 -5z m-69 -11
c-10 -2 -28 -2 -40 0 -13 2 -5 4 17 4 22 1 32 -1 23 -4z m-89 -7 c-2 -2 -33
-6 -69 -9 -41 -3 -54 -2 -35 3 31 8 112 13 104 6z m-242 -22 c-3 -3 -12 -4
-19 -1 -8 3 -5 6 6 6 11 1 17 -2 13 -5z"/>
<path d="M11228 13183 c7 -3 16 -2 19 1 4 3 -2 6 -13 5 -11 0 -14 -3 -6 -6z"/>
<path d="M13775 12329 c-522 -60 -1021 -315 -1357 -694 -364 -410 -539 -850
-581 -1465 -3 -45 -3 -45 -11 -12 -9 33 -26 44 -26 17 0 -18 -1 -18 -32 -2
-14 7 -23 18 -20 25 2 6 -1 12 -7 12 -12 0 -14 -11 -11 -47 1 -13 -3 -23 -9
-23 -6 0 -11 5 -11 10 0 6 -5 10 -11 10 -5 0 -8 -4 -5 -8 3 -5 6 -49 7 -98 0
-49 7 -136 15 -194 7 -58 14 -111 14 -118 0 -7 4 -11 9 -8 4 3 6 -5 4 -18 -6
-30 8 -38 66 -40 25 -1 52 -5 59 -9 15 -10 15 -2 -3 98 -14 78 -20 153 -11
144 3 -3 10 -43 16 -91 27 -220 178 -592 338 -833 36 -55 72 -106 78 -115 133
-166 210 -247 329 -347 440 -370 1031 -563 1570 -514 612 56 1119 316 1490
766 203 246 368 572 439 865 31 130 48 226 47 270 0 24 4 47 10 51 6 3 12 64
14 148 2 79 6 145 9 148 6 6 7 -12 9 -109 1 -43 3 -47 22 -42 17 6 18 5 7 -9
-9 -10 -10 -17 -2 -22 5 -3 10 -1 10 4 0 6 12 11 27 11 15 0 42 6 60 12 l34
13 -4 112 c-2 62 -6 116 -10 119 -3 3 -3 12 0 20 3 8 1 14 -5 14 -5 0 -12 9
-15 20 -3 11 -1 20 4 20 5 0 9 16 9 35 0 34 -7 40 -39 35 -10 -1 -9 4 4 17 18
17 18 18 -2 21 -18 3 -20 7 -13 33 5 17 5 29 -1 29 -5 0 -9 -7 -9 -15 0 -8 -4
-15 -8 -15 -5 0 -9 13 -9 30 0 35 -11 50 -22 31 -6 -9 -11 -10 -15 -2 -4 6 -4
16 -1 21 4 6 -8 10 -29 10 -23 0 -36 -5 -36 -13 0 -21 24 -67 35 -67 6 0 3 -5
-5 -10 -12 -8 -13 -11 -1 -19 9 -6 10 -11 2 -15 -6 -4 -8 -18 -5 -31 3 -12 1
-26 -5 -29 -6 -4 -12 13 -16 41 -11 77 -43 211 -76 313 -265 821 -959 1399
-1809 1506 -121 15 -388 17 -505 3z m526 -1053 c353 -88 661 -363 769 -686 55
-165 82 -420 61 -570 -58 -393 -334 -736 -706 -875 -166 -63 -410 -86 -575
-55 -219 41 -434 149 -587 297 -166 160 -300 412 -309 577 -1 34 -4 62 -5 64
-2 2 -5 26 -19 152 -28 245 80 540 275 751 100 108 255 215 430 295 64 29 210
68 295 78 84 10 277 -4 371 -28z m2024 -816 c3 -5 1 -10 -4 -10 -6 0 -11 5
-11 10 0 6 2 10 4 10 3 0 8 -4 11 -10z m-135 -50 c0 -5 -4 -10 -10 -10 -5 0
-10 5 -10 10 0 6 5 10 10 10 6 0 10 -4 10 -10z m5 -29 c3 -5 1 -12 -5 -16 -5
-3 -10 1 -10 9 0 18 6 21 15 7z m8 -44 c7 4 8 0 4 -11 -4 -10 -7 -22 -7 -27 0
-5 -4 -9 -9 -9 -5 0 -9 15 -9 33 1 17 3 26 5 19 3 -6 10 -9 16 -5z m85 -225
c3 -9 -2 -13 -14 -10 -9 1 -19 9 -22 16 -3 9 2 13 14 10 9 -1 19 -9 22 -16z"/>
<path d="M14020 11064 c0 -34 14 -40 125 -53 200 -22 358 -103 504 -257 76
-80 82 -84 101 -71 21 14 20 16 -28 73 -163 195 -368 301 -619 321 -77 5 -83
5 -83 -13z"/>
<path d="M13490 10882 c-148 -122 -253 -284 -302 -467 -18 -68 -37 -255 -25
-255 3 0 17 4 31 10 24 9 26 14 26 69 0 119 44 265 116 386 20 33 80 103 136
157 89 86 98 99 88 117 -14 27 -17 27 -70 -17z"/>
<path d="M15015 10455 c-5 -1 -37 -8 -70 -15 -33 -7 -70 -19 -82 -26 -12 -8
-30 -14 -40 -14 -38 0 -44 -13 -33 -66 5 -27 12 -68 14 -91 4 -39 25 -92 26
-68 0 6 5 3 10 -5 8 -13 10 -12 10 3 0 9 5 17 10 17 28 0 -8 -215 -53 -320
-55 -127 -145 -244 -251 -326 -38 -29 -38 -31 -24 -58 l15 -28 61 51 c118 98
209 228 262 372 27 76 43 153 56 278 l6 63 -31 -7 c-17 -4 -31 -3 -31 2 0 8
105 33 139 33 6 0 11 -14 11 -31 0 -26 3 -29 20 -24 11 4 32 8 47 9 20 2 27 9
29 30 2 20 -1 26 -11 22 -7 -2 -16 2 -19 10 -4 9 2 14 16 14 17 0 19 3 10 12
-7 7 -12 18 -12 26 0 8 -8 20 -17 27 -11 9 -17 27 -18 56 0 30 -4 43 -12 42
-7 -2 -13 2 -13 7 0 10 -6 11 -25 5z m85 -219 c0 -3 -4 -8 -10 -11 -5 -3 -10
-1 -10 4 0 6 5 11 10 11 6 0 10 -2 10 -4z"/>
<path d="M14650 10355 c-19 -7 -48 -14 -63 -14 -16 -1 -49 -9 -75 -20 -26 -10
-74 -25 -107 -34 -33 -9 -118 -33 -190 -54 -125 -36 -128 -38 -90 -45 22 -4
79 -7 128 -7 51 -1 87 -5 87 -11 0 -6 8 -5 20 2 14 9 23 10 28 3 4 -5 30 -11
57 -11 28 -1 77 -5 110 -9 55 -7 95 -1 149 21 14 5 17 4 12 -4 -5 -8 -2 -10 8
-6 19 7 21 78 5 154 -12 55 -19 58 -79 35z"/>
<path d="M13263 10202 c-14 -2 -25 -12 -29 -26 -4 -17 -17 -25 -57 -35 -29 -7
-65 -13 -82 -14 -28 -2 -30 1 -33 35 -3 34 -6 37 -33 36 -19 -1 -37 -10 -48
-25 -11 -12 -24 -23 -31 -23 -7 0 -10 -7 -6 -16 3 -9 6 -25 6 -35 0 -11 4 -18
9 -14 16 9 22 -13 9 -34 -14 -23 -4 -41 14 -23 8 8 15 7 25 -4 12 -11 33 -13
93 -9 47 3 82 1 85 -5 3 -6 11 -10 16 -10 6 0 8 4 5 9 -3 5 1 14 9 21 13 11
18 10 29 -5 9 -13 15 -15 20 -6 4 6 12 9 17 6 16 -11 20 18 12 100 -8 75 -9
80 -30 77z m-266 -44 c-3 -8 -6 -5 -6 6 -1 11 2 17 5 13 3 -3 4 -12 1 -19z m2
-54 c3 -16 1 -17 -13 -5 -19 16 -21 34 -3 29 6 -3 14 -13 16 -24z"/>
<path d="M13362 10138 c3 -38 11 -75 17 -81 8 -8 11 -6 12 9 0 11 3 14 6 6 4
-10 8 -10 19 -1 8 6 14 9 14 6 0 -3 20 1 44 8 31 9 46 10 48 3 3 -7 16 -4 38
7 23 12 35 14 38 6 2 -6 8 -9 13 -5 14 8 52 16 77 15 12 0 25 6 28 14 4 10 16
14 33 13 21 -2 27 2 29 20 3 23 4 23 20 4 24 -27 54 -25 46 2 -6 18 -5 19 10
7 12 -10 20 -11 29 -3 7 6 22 9 34 6 11 -3 24 -1 27 5 5 7 -6 11 -31 12 -21 1
-49 3 -63 5 -14 2 -130 5 -259 7 l-234 4 5 -69z"/>
<path d="M12945 10170 c3 -5 8 -10 11 -10 2 0 4 5 4 10 0 6 -5 10 -11 10 -5 0
-7 -4 -4 -10z"/>
<path d="M15025 10170 c-3 -5 -1 -10 4 -10 6 0 11 5 11 10 0 6 -2 10 -4 10 -3
0 -8 -4 -11 -10z"/>
<path d="M13036 9987 c3 -10 9 -15 12 -12 3 3 0 11 -7 18 -10 9 -11 8 -5 -6z"/>
<path d="M13332 9697 c-22 -13 -21 -14 55 -96 175 -189 354 -272 631 -294 43
-3 52 -1 52 12 0 31 -16 40 -85 46 -221 21 -420 120 -561 280 -32 36 -60 65
-63 65 -3 -1 -16 -6 -29 -13z"/>
<path d="M11811 10214 c0 -11 3 -14 6 -6 3 7 2 16 -1 19 -3 4 -6 -2 -5 -13z"/>
<path d="M11775 10199 c-10 -15 3 -25 16 -12 7 7 7 13 1 17 -6 3 -14 1 -17 -5z"/>
<path d="M11840 9640 c13 -23 20 -26 20 -6 0 8 -7 16 -15 20 -13 4 -14 2 -5
-14z"/>
<path d="M11882 9630 c0 -14 2 -19 5 -12 2 6 2 18 0 25 -3 6 -5 1 -5 -13z"/>
<path d="M11410 12240 c0 -5 4 -10 9 -10 6 0 13 5 16 10 3 6 -1 10 -9 10 -9 0
-16 -4 -16 -10z"/>
<path d="M11460 12230 c0 -5 5 -10 10 -10 6 0 10 5 10 10 0 6 -4 10 -10 10 -5
0 -10 -4 -10 -10z"/>
<path d="M16649 12355 c17 -34 31 -51 31 -39 0 7 -9 22 -21 35 -16 19 -18 20
-10 4z"/>
<path d="M16555 12280 c-3 -5 1 -10 9 -10 9 0 16 5 16 10 0 6 -4 10 -9 10 -6
0 -13 -4 -16 -10z"/>
<path d="M16550 12222 c0 -12 19 -26 26 -19 2 2 -2 10 -11 17 -9 8 -15 8 -15
2z"/>
<path d="M16210 11810 c0 -5 5 -10 10 -10 6 0 10 5 10 10 0 6 -4 10 -10 10 -5
0 -10 -4 -10 -10z"/>
<path d="M10671 11754 c0 -11 3 -14 6 -6 3 7 2 16 -1 19 -3 4 -6 -2 -5 -13z"/>
<path d="M10687 11733 c-12 -11 -8 -23 8 -23 8 0 15 7 15 15 0 16 -12 20 -23
8z"/>
<path d="M10710 11700 c-8 -5 -11 -12 -7 -16 4 -4 13 -2 19 4 15 15 7 24 -12
12z"/>
<path d="M10740 11684 c0 -10 31 -36 37 -31 3 3 -2 13 -10 22 -16 15 -27 19
-27 9z"/>
<path d="M10710 11654 c0 -8 5 -12 10 -9 6 3 10 10 10 16 0 5 -4 9 -10 9 -5 0
-10 -7 -10 -16z"/>
<path d="M10723 11631 c-8 -12 -10 -29 -5 -41 7 -20 9 -20 21 -6 11 14 11 16
-3 16 -18 0 -22 15 -6 25 17 10 82 -16 107 -43 16 -17 23 -20 23 -10 0 17 -28
45 -50 50 -8 2 -17 6 -20 10 -3 3 -16 9 -30 13 -19 4 -28 1 -37 -14z"/>
<path d="M10780 11589 c0 -5 5 -7 10 -4 6 3 10 8 10 11 0 2 -4 4 -10 4 -5 0
-10 -5 -10 -11z"/>
<path d="M10747 11563 c-4 -3 -7 -13 -7 -21 0 -12 3 -12 15 -2 8 7 15 16 15
21 0 11 -14 12 -23 2z"/>
<path d="M10876 11561 c-4 -5 2 -17 11 -27 13 -12 14 -19 5 -22 -6 -2 -12 -11
-12 -20 1 -15 2 -15 11 1 5 9 17 17 26 17 14 0 14 -2 -1 -19 -16 -17 -16 -19
4 -24 15 -4 20 -2 17 8 -3 7 -2 16 3 21 5 5 -7 24 -25 42 -19 18 -36 28 -39
23z"/>
<path d="M10781 11546 c-20 -24 -23 -79 -7 -116 18 -42 21 -21 4 27 -9 24 -9
36 -2 41 11 7 29 62 20 62 -2 0 -9 -6 -15 -14z"/>
<path d="M10796 11508 c-3 -17 -4 -33 -1 -36 3 -3 5 1 5 8 0 7 7 18 17 25 9 7
13 17 9 23 -12 20 -23 13 -30 -20z"/>
<path d="M10956 11468 c14 -85 18 -78 -42 -78 -32 0 -54 -4 -54 -11 0 -7 18
-10 50 -7 28 1 50 -1 50 -6 0 -6 6 -4 13 2 15 16 17 64 3 75 -6 5 -1 5 12 2
12 -3 22 -3 22 0 0 8 -42 44 -51 45 -3 0 -5 -10 -3 -22z"/>
<path d="M10875 11449 c-8 -26 -9 -25 43 -34 28 -4 42 -3 42 4 0 6 -9 11 -19
11 -11 0 -23 5 -26 11 -4 6 -13 8 -21 5 -8 -3 -11 0 -7 10 3 7 3 14 0 14 -3 0
-9 -9 -12 -21z"/>
<path d="M10820 11420 c0 -5 5 -10 11 -10 5 0 7 5 4 10 -3 6 -8 10 -11 10 -2
0 -4 -4 -4 -10z"/>
<path d="M10785 11380 c3 -5 12 -10 20 -10 8 0 17 5 20 10 4 6 -5 10 -20 10
-15 0 -24 -4 -20 -10z"/>
<path d="M10895 11040 c-3 -5 1 -10 9 -10 9 0 16 5 16 10 0 6 -4 10 -9 10 -6
0 -13 -4 -16 -10z"/>
<path d="M11028 11014 c-33 -17 -35 -34 -8 -59 11 -10 20 -24 20 -32 0 -8 4
-12 9 -9 6 4 5 21 -1 42 -7 27 -7 39 2 44 26 16 5 28 -22 14z"/>
<path d="M10944 11009 c-3 -6 -1 -16 5 -22 8 -8 11 -5 11 11 0 24 -5 28 -16
11z"/>
<path d="M10944 10933 c0 -16 -2 -36 -5 -45 -2 -9 1 -17 6 -16 6 0 9 4 8 8 -1
4 4 13 11 19 15 13 9 61 -8 61 -6 0 -11 -12 -12 -27z"/>
<path d="M10960 10770 c0 -5 5 -10 10 -10 6 0 10 5 10 10 0 6 -4 10 -10 10 -5
0 -10 -4 -10 -10z"/>
<path d="M10980 10720 c0 -5 5 -10 10 -10 6 0 10 5 10 10 0 6 -4 10 -10 10 -5
0 -10 -4 -10 -10z"/>
<path d="M16275 11681 c-5 -10 -4 -16 3 -19 7 -2 12 -10 12 -18 0 -8 5 -14 10
-14 6 0 10 7 10 15 0 8 -4 15 -9 15 -5 0 -11 8 -13 18 -3 14 -5 15 -13 3z"/>
<path d="M11622 11600 c13 -20 28 -27 28 -12 0 10 -22 32 -32 32 -5 0 -3 -9 4
-20z"/>
<path d="M16370 11410 c0 -5 5 -10 10 -10 6 0 10 5 10 10 0 6 -4 10 -10 10 -5
0 -10 -4 -10 -10z"/>
<path d="M11305 10969 c-4 -13 -13 -27 -19 -31 -6 -5 -2 -8 10 -8 14 0 24 8
28 22 8 31 -10 46 -19 17z"/>
<path d="M11343 10975 c0 -8 4 -15 9 -15 4 0 8 4 8 9 0 6 -4 12 -8 15 -5 3 -9
-1 -9 -9z"/>
<path d="M11277 10913 c-4 -3 -7 -13 -7 -22 1 -13 3 -13 11 2 11 19 8 33 -4
20z"/>
<path d="M11261 10784 c0 -11 3 -14 6 -6 3 7 2 16 -1 19 -3 4 -6 -2 -5 -13z"/>
<path d="M16640 8103 c0 -6 8 -17 18 -24 16 -13 16 -13 2 6 -8 11 -16 22 -17
24 -2 2 -3 0 -3 -6z"/>
<path d="M16630 7979 c0 -5 5 -7 10 -4 6 3 10 8 10 11 0 2 -4 4 -10 4 -5 0
-10 -5 -10 -11z"/>
<path d="M11380 8145 c-14 -7 -29 -11 -34 -8 -5 4 -6 1 -2 -6 4 -6 0 -14 -8
-17 -20 -8 -21 -24 -1 -24 8 0 15 4 15 10 0 5 16 18 36 28 21 11 33 22 28 25
-5 3 -20 -1 -34 -8z"/>
<path d="M11307 8060 c-3 -11 -1 -23 4 -26 5 -3 9 6 9 20 0 31 -6 34 -13 6z"/>
<path d="M11410 7980 c0 -5 5 -10 10 -10 6 0 10 5 10 10 0 6 -4 10 -10 10 -5
0 -10 -4 -10 -10z"/>
<path d="M10218 13373 c34 -2 90 -2 125 0 34 2 6 3 -63 3 -69 0 -97 -1 -62 -3z"/>
<path d="M13990 13350 c0 -5 5 -10 11 -10 5 0 7 5 4 10 -3 6 -8 10 -11 10 -2
0 -4 -4 -4 -10z"/>
<path d="M5848 13343 c7 -3 16 -2 19 1 4 3 -2 6 -13 5 -11 0 -14 -3 -6 -6z"/>
<path d="M14088 13343 c7 -3 16 -2 19 1 4 3 -2 6 -13 5 -11 0 -14 -3 -6 -6z"/>
<path d="M7258 13333 c7 -3 16 -2 19 1 4 3 -2 6 -13 5 -11 0 -14 -3 -6 -6z"/>
<path d="M7643 13323 c-24 -2 -43 -8 -43 -14 0 -5 10 -7 23 -4 12 3 49 9 82
14 44 6 49 8 20 8 -22 0 -59 -2 -82 -4z"/>
<path d="M17227 13323 c18 -2 50 -2 70 0 21 2 7 4 -32 4 -38 0 -55 -2 -38 -4z"/>
<path d="M5888 13313 c6 -2 18 -2 25 0 6 3 1 5 -13 5 -14 0 -19 -2 -12 -5z"/>
<path d="M6800 13310 l-165 -5 240 -9 c132 -4 278 -9 325 -11 76 -2 255 -9
555 -20 55 -2 115 -7 133 -11 26 -5 32 -3 32 11 0 15 -8 16 -82 10 -59 -4 -79
-3 -68 4 8 6 47 11 85 12 85 2 68 6 -42 12 -64 3 -80 1 -76 -10 6 -16 -21 -17
-47 -1 -15 10 -29 10 -63 1 -29 -8 -56 -9 -82 -3 -22 5 -66 10 -97 10 -32 0
-58 4 -58 9 0 10 -278 10 -590 1z m560 -10 c0 -6 -22 -9 -50 -8 -27 1 -44 6
-37 10 18 11 87 10 87 -2z"/>
<path d="M7505 13310 c11 -5 29 -9 40 -9 l20 0 -20 9 c-11 5 -29 9 -40 9 l-20
0 20 -9z"/>
<path d="M5808 13283 c7 -3 16 -2 19 1 4 3 -2 6 -13 5 -11 0 -14 -3 -6 -6z"/>
<path d="M18315 13279 c-33 -4 -116 -13 -185 -18 -69 -6 -181 -17 -250 -26
-323 -39 -470 -56 -525 -60 -33 -3 -98 -10 -145 -15 -47 -6 -157 -17 -245 -25
-88 -9 -175 -20 -194 -25 -19 -5 -46 -7 -59 -3 -17 4 -23 2 -18 -6 4 -6 2 -11
-3 -11 -6 0 -11 5 -11 11 0 5 -5 7 -11 3 -7 -4 -26 -8 -43 -9 -17 -1 -60 -3
-96 -4 l-65 -4 60 -8 c266 -38 466 -61 530 -63 22 -1 43 -5 46 -9 3 -4 18 -3
33 3 21 8 28 7 32 -5 3 -8 16 -14 27 -14 12 1 38 -2 57 -5 27 -5 31 -4 15 4
-16 8 -13 9 15 4 19 -4 40 -10 45 -15 6 -4 33 -6 59 -3 33 4 46 2 41 -5 -3 -6
-1 -11 4 -11 6 0 11 5 11 10 0 6 5 10 11 10 5 0 8 -4 4 -9 -7 -12 16 -16 185
-35 217 -25 763 -95 765 -98 11 -13 38 -83 129 -324 57 -154 109 -291 115
-304 6 -14 46 -122 90 -240 117 -315 106 -293 144 -285 67 15 69 25 32 134
-18 53 -37 106 -43 116 -6 11 -23 54 -38 95 -15 41 -33 86 -40 100 -7 14 -38
90 -69 170 l-57 145 1 150 c1 83 4 173 7 200 9 69 -7 48 -34 -45 -12 -41 -26
-78 -30 -82 -4 -4 -6 131 -4 299 3 316 2 322 -36 323 -7 0 -10 -5 -6 -12 5 -7
3 -8 -5 -4 -18 11 -175 14 -246 5z m75 -13 c0 -11 -19 -15 -25 -6 -3 5 1 10 9
10 9 0 16 -2 16 -4z m43 -13 c-7 -2 -19 -2 -25 0 -7 3 -2 5 12 5 14 0 19 -2
13 -5z m-158 -113 c-3 -5 -13 -10 -21 -10 -8 0 -14 5 -14 10 0 6 9 10 21 10
11 0 17 -4 14 -10z m-1635 -60 c0 -12 -8 -12 -35 0 -18 8 -17 9 8 9 15 1 27
-3 27 -9z m170 -11 l25 0 -23 -10 c-13 -5 -28 -6 -33 -3 -6 3 -31 10 -57 15
l-47 8 55 -4 c30 -3 66 -5 80 -6z m1405 1 c-3 -5 -12 -7 -20 -3 -21 7 -19 13
6 13 11 0 18 -4 14 -10z m-1315 -20 c20 -6 21 -8 5 -8 -11 0 -29 3 -40 8 -25
11 1 11 35 0z m178 -17 c-10 -2 -28 -2 -40 0 -13 2 -5 4 17 4 22 1 32 -1 23
-4z m522 -71 c0 -4 -18 -6 -40 -4 -22 2 -40 6 -40 8 0 2 18 4 40 4 22 0 40 -3
40 -8z m393 -49 c-7 -2 -19 -2 -25 0 -7 3 -2 5 12 5 14 0 19 -2 13 -5z m407
-8 c0 -8 -2 -15 -4 -15 -2 0 -6 7 -10 15 -3 8 -1 15 4 15 6 0 10 -7 10 -15z
m-92 -12 c-10 -2 -28 -2 -40 0 -13 2 -5 4 17 4 22 1 32 -1 23 -4z m-85 -10
c-13 -2 -33 -2 -45 0 -13 2 -3 4 22 4 25 0 35 -2 23 -4z m120 -10 c-7 -2 -21
-2 -30 0 -10 3 -4 5 12 5 17 0 24 -2 18 -5z"/>
<path d="M4008 13273 c7 -3 16 -2 19 1 4 3 -2 6 -13 5 -11 0 -14 -3 -6 -6z"/>
<path d="M4140 13270 c-24 -8 -23 -8 8 -9 17 -1 32 4 32 9 0 11 -5 11 -40 0z"/>
<path d="M5703 13256 c-34 -12 -66 -25 -69 -29 -11 -10 -1 -9 47 8 24 9 52 14
62 11 9 -2 14 0 11 5 -3 5 5 13 18 18 46 19 -8 8 -69 -13z"/>
<path d="M3800 13259 c-41 -5 -97 -7 -125 -4 -27 2 -41 2 -30 -1 11 -3 29 -9
40 -14 11 -5 31 -11 45 -13 14 -3 -6 -3 -45 -1 -47 2 -64 1 -50 -6 19 -8 19
-9 -2 -9 -12 -1 -25 4 -28 9 -3 6 -24 10 -45 10 -22 0 -40 5 -43 13 -2 6 -8 9
-12 5 -13 -13 3 -22 53 -30 35 -5 29 -6 -23 -2 -38 3 -74 8 -80 12 -5 4 -41 4
-80 1 l-70 -5 65 -3 c36 -1 74 -6 85 -11 13 -5 -2 -7 -40 -4 -45 2 -52 1 -30
-5 27 -8 26 -9 -20 -10 -27 -1 -77 -5 -110 -7 -81 -7 -64 6 22 15 l68 8 -75 3
c-69 3 -72 4 -30 10 l45 7 -42 1 c-31 2 -43 6 -43 17 0 11 -11 15 -42 13 l-43
-1 38 -4 c32 -4 37 -8 37 -29 0 -13 -4 -24 -10 -24 -5 0 -10 -7 -10 -15 0 -8
-4 -15 -10 -15 -13 0 -13 13 1 27 13 13 4 47 -10 38 -6 -3 -8 -12 -4 -20 3 -8
0 -15 -7 -15 -7 0 -10 -7 -6 -15 3 -10 -2 -16 -17 -19 -42 -9 -233 -20 -317
-20 -61 1 -72 -1 -40 -5 36 -5 21 -8 -71 -13 -79 -5 -126 -3 -147 4 -23 9 -36
9 -54 1 -20 -10 -18 -12 26 -12 84 -1 47 -9 -79 -16 -66 -4 -142 -11 -169 -16
-37 -7 -52 -6 -58 3 -6 10 -8 10 -8 1 0 -7 -10 -13 -22 -13 -17 0 -19 3 -10
12 7 7 12 20 12 29 0 18 -43 29 -113 29 -34 0 -37 2 -23 15 11 11 27 14 58 9
32 -4 39 -3 28 5 -8 6 -23 11 -33 11 -15 0 -16 3 -7 20 7 14 7 20 0 20 -5 0
-10 -7 -10 -15 0 -9 -10 -14 -27 -13 -16 0 -52 -2 -80 -6 -48 -6 -53 -4 -53
13 0 14 8 21 28 24 15 2 11 2 -8 0 -19 -3 -54 -5 -77 -4 -40 0 -48 -6 -44 -31
1 -11 -37 -10 -41 1 -1 5 -43 11 -93 14 l-90 5 80 -10 c43 -6 85 -17 93 -24
15 -16 34 -18 48 -5 5 5 26 12 47 15 28 5 37 4 37 -7 0 -12 13 -14 60 -11 39
3 60 1 60 -6 0 -7 -8 -9 -20 -5 -26 8 -47 -4 -29 -17 10 -7 3 -8 -21 -4 -21 4
-30 3 -22 -3 12 -7 -37 -22 -85 -25 -19 -2 -25 -13 -18 -35 5 -15 15 -21 38
-22 31 -1 31 -1 7 -10 -19 -6 -14 -7 20 -4 25 2 89 7 143 11 53 4 97 11 97 15
0 5 7 9 16 9 8 0 13 -4 10 -8 -2 -4 32 -4 77 0 45 4 159 15 252 23 94 8 211
20 260 25 50 6 149 15 220 20 72 5 148 12 170 15 22 3 119 12 215 21 172 15
270 24 473 44 56 6 135 13 175 17 39 3 72 10 72 14 0 11 -35 11 -96 0 -91 -17
-214 -24 -214 -12 0 6 11 8 28 5 15 -2 59 2 97 9 56 12 62 15 30 14 -22 0 -74
-4 -115 -8z m-1780 -115 c0 -2 -7 -4 -15 -4 -8 0 -15 4 -15 10 0 5 7 7 15 4 8
-4 15 -8 15 -10z m86 -23 c-3 -5 -15 -7 -26 -4 -28 7 -25 13 6 13 14 0 23 -4
20 -9z m-116 -5 c0 -11 -19 -15 -25 -6 -3 5 1 10 9 10 9 0 16 -2 16 -4z"/>
<path d="M3318 13253 c12 -2 30 -2 40 0 9 3 -1 5 -23 4 -22 0 -30 -2 -17 -4z"/>
<path d="M2660 13240 c-12 -8 -12 -10 5 -9 11 0 29 4 40 9 18 8 18 9 -5 9 -14
0 -32 -4 -40 -9z"/>
<path d="M2165 13230 c-15 -7 -9 -9 25 -9 25 0 52 4 60 9 19 13 -56 13 -85 0z"/>
<path d="M2278 13233 c6 -2 18 -2 25 0 6 3 1 5 -13 5 -14 0 -19 -2 -12 -5z"/>
<path d="M2428 13233 c32 -4 42 -17 20 -26 -7 -3 -41 -2 -76 1 -58 5 -64 3
-69 -17 -3 -11 -9 -21 -14 -21 -5 0 -9 -4 -9 -10 0 -5 9 -10 20 -10 12 0 20
-7 20 -16 0 -13 -7 -15 -34 -10 -22 4 -37 2 -44 -7 -9 -10 4 -11 66 -5 101 9
104 10 57 18 -33 6 -28 7 36 9 77 1 103 12 98 43 -3 28 1 48 12 48 6 0 8 -11
4 -28 -4 -20 -1 -33 9 -42 18 -14 27 0 30 42 1 21 6 23 46 21 l45 -2 -40 9
c-22 5 -78 8 -125 8 -47 -1 -70 -3 -52 -5z m-28 -53 c0 -5 12 -10 26 -10 14 0
23 4 19 10 -3 6 3 10 14 10 14 0 21 -6 21 -20 0 -18 -6 -19 -69 -18 -72 1
-126 17 -61 18 26 0 31 3 20 10 -12 8 -11 10 8 10 12 0 22 -4 22 -10z"/>
<path d="M2815 13231 c20 -10 -13 -14 -115 -14 -28 0 -30 -1 -7 -4 15 -2 27
-9 27 -14 0 -6 20 -9 47 -8 30 2 48 -1 51 -9 2 -7 -2 -12 -10 -12 -22 0 14
-20 37 -20 29 0 30 38 2 51 -16 6 2 8 61 6 94 -4 100 0 16 13 -33 5 -75 11
-94 15 -26 4 -30 3 -15 -4z"/>
<path d="M2028 13223 c6 -2 18 -2 25 0 6 3 1 5 -13 5 -14 0 -19 -2 -12 -5z"/>
<path d="M2246 13205 c-3 -10 -19 -15 -45 -15 -22 0 -43 -4 -46 -10 -4 -6 11
-10 39 -10 38 0 44 -3 39 -17 -4 -11 -3 -14 6 -9 6 4 9 16 6 26 -4 14 0 19 16
22 12 2 24 9 27 16 5 18 -35 15 -42 -3z"/>
<path d="M3040 13210 c0 -5 7 -10 15 -10 9 0 12 -6 9 -15 -5 -11 1 -15 25 -15
17 0 31 5 31 10 0 6 -8 10 -19 10 -10 0 -24 7 -31 15 -14 17 -30 20 -30 5z"/>
<path d="M5598 13213 c7 -3 16 -2 19 1 4 3 -2 6 -13 5 -11 0 -14 -3 -6 -6z"/>
<path d="M5558 13203 c7 -3 16 -2 19 1 4 3 -2 6 -13 5 -11 0 -14 -3 -6 -6z"/>
<path d="M1585 13153 c4 -27 9 -56 12 -65 4 -16 -4 -18 -62 -18 -64 0 -81 -13
-30 -22 13 -3 22 -1 19 3 -3 5 50 6 118 3 87 -4 119 -3 108 5 -11 8 -5 9 24 4
30 -5 37 -3 31 6 -4 7 -16 11 -26 8 -22 -6 -26 8 -5 20 19 11 24 45 7 51 -9 3
-11 -1 -6 -17 5 -15 2 -21 -9 -21 -9 0 -15 -5 -13 -11 2 -11 -19 -13 -108 -10
-40 1 -41 2 -40 35 0 19 3 37 7 41 7 7 -15 35 -27 35 -3 0 -3 -21 0 -47z m95
-89 c0 -2 -19 -4 -42 -4 -26 0 -38 4 -30 8 12 8 72 4 72 -4z"/>
<path d="M2670 13190 c0 -5 4 -10 9 -10 6 0 13 5 16 10 3 6 -1 10 -9 10 -9 0
-16 -4 -16 -10z"/>
<path d="M1680 13180 c0 -5 5 -10 11 -10 7 0 9 -9 6 -23 -4 -12 -2 -29 3 -37
9 -13 11 -13 20 0 14 22 12 46 -6 64 -18 18 -34 21 -34 6z"/>
<path d="M2980 13180 c-21 -7 -19 -8 18 -9 23 -1 42 4 42 9 0 12 -24 12 -60 0z"/>
<path d="M2577 13173 c-18 -5 -18 -5 -1 -18 13 -9 24 -10 41 -2 45 20 16 34
-40 20z"/>
<path d="M1644 13146 c-8 -33 3 -51 22 -35 18 15 18 33 -1 49 -12 10 -15 7
-21 -14z"/>
<path d="M2733 13163 c9 -2 23 -2 30 0 6 3 -1 5 -18 5 -16 0 -22 -2 -12 -5z"/>
<path d="M2888 13163 c6 -2 18 -2 25 0 6 3 1 5 -13 5 -14 0 -19 -2 -12 -5z"/>
<path d="M1536 13151 c-8 -13 4 -42 15 -35 12 7 12 44 0 44 -6 0 -12 -4 -15
-9z"/>
<path d="M1740 13151 c0 -6 5 -13 10 -16 6 -3 10 1 10 9 0 9 -4 16 -10 16 -5
0 -10 -4 -10 -9z"/>
<path d="M1825 13149 c-11 -16 2 -22 32 -14 26 7 26 8 8 15 -28 12 -33 12 -40
-1z"/>
<path d="M2653 13143 c9 -2 23 -2 30 0 6 3 -1 5 -18 5 -16 0 -22 -2 -12 -5z"/>
<path d="M271 13120 c-69 -5 -91 -23 -40 -34 43 -8 648 -6 626 3 -18 6 -18 8
-2 21 14 12 18 12 25 0 5 -8 7 -17 4 -21 -2 -4 0 -10 6 -14 5 -3 10 -30 10
-58 1 -63 15 -46 25 29 10 81 17 79 -309 79 -155 0 -310 -2 -345 -5z"/>
<path d="M1425 13120 c4 -6 11 -8 16 -5 14 9 11 15 -7 15 -8 0 -12 -5 -9 -10z"/>
<path d="M1470 13120 c-8 -5 -10 -10 -5 -10 6 0 17 5 25 10 8 5 11 10 5 10 -5
0 -17 -5 -25 -10z"/>
<path d="M10048 13123 c6 -2 18 -2 25 0 6 3 1 5 -13 5 -14 0 -19 -2 -12 -5z"/>
<path d="M166 13105 c-3 -8 -1 -15 3 -15 5 0 11 7 15 15 3 8 1 15 -3 15 -5 0
-11 -7 -15 -15z"/>
<path d="M5320 13100 c0 -5 5 -10 10 -10 6 0 10 5 10 10 0 6 -4 10 -10 10 -5
0 -10 -4 -10 -10z"/>
<path d="M1440 13080 c0 -5 5 -10 11 -10 5 0 7 5 4 10 -3 6 -8 10 -11 10 -2 0
-4 -4 -4 -10z"/>
<path d="M10903 13083 c9 -2 23 -2 30 0 6 3 -1 5 -18 5 -16 0 -22 -2 -12 -5z"/>
<path d="M950 13061 c0 -11 -6 -22 -12 -24 -10 -4 -10 -8 1 -15 10 -7 10 -14
2 -30 -8 -15 -8 -21 1 -24 7 -3 8 -9 3 -18 -14 -23 -15 -64 -2 -72 8 -5 6 -8
-5 -8 -22 0 -24 -16 -3 -24 9 -3 15 -18 15 -36 0 -25 -4 -30 -23 -30 -17 0
-29 -11 -43 -37 -18 -37 -19 -72 -20 -1028 l-1 -990 8 965 c5 531 10 981 11
1000 3 34 5 35 46 38 24 2 42 -1 42 -7 0 -6 -6 -8 -14 -5 -23 9 -30 -16 -32
-121 -1 -55 -5 -185 -8 -290 -3 -104 -9 -505 -12 -890 -9 -990 -9 -989 -17
-1002 -5 -8 -3 -13 5 -13 8 0 9 -3 3 -8 -6 -4 -10 -50 -10 -107 1 -55 -1 -104
-4 -110 -3 -5 -8 89 -11 210 l-6 220 -2 -227 c-2 -199 0 -227 13 -222 11 5 13
2 9 -10 -3 -9 -10 -13 -15 -10 -5 3 -9 -4 -9 -15 0 -12 5 -18 13 -15 9 3 12
-4 11 -23 -3 -40 -5 -41 -14 -13 -5 15 -8 -35 -9 -127 -1 -137 1 -152 15 -146
12 4 15 2 12 -8 -3 -8 -11 -13 -17 -11 -13 2 -13 -922 -1 -1243 4 -99 10 -396
14 -660 8 -632 25 -1409 32 -1462 4 -30 11 -44 25 -48 19 -6 27 -35 10 -35
-15 0 -22 -33 -9 -42 10 -6 10 -10 -2 -18 -13 -8 -12 -10 3 -10 9 0 17 -4 17
-10 0 -5 -7 -10 -15 -10 -8 0 -15 -4 -15 -10 0 -5 5 -10 11 -10 8 0 8 -4 0
-14 -8 -10 -9 -16 -1 -21 6 -3 7 -12 3 -18 -11 -16 -11 -87 -1 -87 5 0 6 -22
2 -50 -4 -27 -3 -57 1 -67 4 -10 7 -51 7 -91 -1 -43 3 -70 9 -67 12 8 11 3 -1
-30 -5 -14 -6 -24 -1 -21 5 3 9 -16 9 -42 2 -54 22 -142 34 -142 4 0 8 -9 8
-19 0 -11 4 -22 9 -26 11 -6 12 -346 1 -385 -7 -24 15 -80 31 -80 4 0 30 11
58 25 62 31 81 60 54 81 -10 7 -23 14 -29 14 -7 0 -19 11 -28 25 -9 14 -23 25
-31 25 -21 0 -28 42 -19 108 6 39 9 49 12 30 4 -35 22 -37 22 -3 0 14 5 25 10
25 6 0 10 -12 10 -28 0 -26 2 -27 44 -24 38 3 45 8 60 38 18 39 22 149 7 202
-6 18 -6 30 -2 27 8 -4 21 71 24 145 1 19 4 37 7 40 9 8 30 75 31 96 0 19 1
19 8 0 7 -19 8 -19 13 2 5 16 2 22 -10 22 -13 0 -14 2 -3 13 11 10 15 9 19 -2
3 -8 16 -25 29 -37 14 -13 22 -28 18 -33 -3 -6 -1 -11 5 -11 6 0 8 -11 4 -27
-4 -22 -3 -25 5 -13 9 12 11 11 11 -8 0 -12 4 -30 9 -40 24 -46 33 -105 29
-186 -3 -52 -2 -89 4 -92 7 -4 6 -9 -1 -13 -6 -4 -10 -34 -11 -66 0 -33 0 -72
0 -86 0 -14 9 -34 20 -44 18 -16 20 -16 26 -1 3 9 14 16 24 16 10 0 23 6 30
14 6 8 19 12 27 9 12 -5 15 -2 11 9 -4 9 -1 21 5 28 10 10 6 11 -16 8 -15 -3
-25 -3 -22 0 10 10 -18 32 -42 32 l-25 0 4 175 c2 96 0 175 -4 175 -5 0 -8 5
-8 10 0 6 18 10 40 10 22 0 40 -4 40 -10 0 -5 -11 -10 -25 -10 -21 0 -25 -5
-25 -29 0 -17 5 -33 10 -36 10 -6 14 7 11 33 -1 6 5 12 12 12 15 0 17 -53 3
-67 -3 -3 -6 -16 -6 -27 0 -18 2 -17 15 8 8 15 15 48 15 72 0 23 5 46 11 50 8
5 8 8 0 13 -16 10 16 51 40 51 14 0 19 7 19 28 1 15 7 38 15 52 16 28 21 70 6
54 -5 -5 -11 -18 -14 -29 -4 -15 -5 -14 -6 7 0 15 -5 30 -11 33 -5 3 -10 25
-10 48 0 51 -17 38 -22 -16 -4 -53 -22 -47 -29 10 l-6 48 -3 -45 -3 -45 -6 44
c-8 62 -31 67 -31 6 0 -33 -4 -45 -12 -42 -7 2 -13 15 -14 28 -3 55 -3 56 -29
51 -32 -6 -33 15 -2 28 18 7 15 9 -20 9 -24 1 -43 6 -43 11 0 6 18 10 40 10
55 0 51 17 -5 22 -47 3 -46 4 -49 -51 -1 -13 -7 -26 -13 -28 -9 -3 -13 9 -13
42 0 61 -23 56 -31 -6 -3 -24 -7 -35 -7 -25 -1 10 -10 24 -19 31 -12 9 -18 27
-18 56 0 24 -6 54 -13 66 -7 12 -12 29 -12 37 0 9 -4 16 -10 16 -5 0 -10 -9
-10 -20 0 -22 -24 -25 -115 -10 l-50 7 43 2 c35 1 42 4 42 21 0 17 7 20 40 20
22 0 40 5 40 10 0 6 -18 10 -40 10 -22 0 -40 -5 -40 -11 0 -6 -17 -9 -42 -7
-42 3 -43 4 -43 39 0 35 -2 37 -28 33 -19 -2 -27 1 -24 9 2 7 11 11 21 9 10
-2 16 4 16 17 0 28 11 52 21 45 5 -3 9 -10 9 -15 0 -6 -4 -7 -10 -4 -14 9 -12
-11 3 -22 6 -6 37 -13 67 -16 36 -4 46 -3 30 3 -22 7 -22 8 -5 11 11 1 0 5
-25 9 -36 6 -39 7 -14 8 17 1 39 11 49 22 14 16 31 20 77 20 32 0 58 4 58 10
0 6 9 10 20 10 19 0 32 4 108 35 40 17 43 17 62 0 18 -16 33 -17 172 -10 84 5
286 7 448 6 l295 -3 55 25 c30 13 72 30 92 36 21 7 41 18 45 24 5 7 10 116 13
244 4 172 8 235 18 245 11 10 122 12 555 10 528 -2 542 -3 562 -22 18 -18 20
-36 23 -160 l4 -140 46 -2 c26 0 52 -2 57 -3 6 -2 22 -3 36 -4 20 -1 29 -8 33
-26 4 -14 17 -31 31 -37 26 -12 75 -4 75 13 0 7 -9 9 -21 6 -42 -11 -77 55
-44 83 18 15 62 0 71 -25 7 -16 76 -20 147 -9 l37 7 0 97 c0 155 35 210 135
210 48 0 56 -3 84 -35 l31 -36 0 -189 0 -190 25 0 c23 0 25 -4 25 -43 0 -24 3
-80 8 -123 l7 -79 5 120 c5 112 6 120 25 120 19 0 20 -8 25 -120 l6 -120 2
110 c2 116 10 142 36 132 13 -5 16 -25 16 -123 0 -65 2 -115 5 -112 3 3 7 53
9 111 4 113 8 129 31 120 12 -4 15 -29 15 -122 0 -78 3 -111 10 -101 5 8 10
61 10 118 0 95 1 102 20 102 18 0 20 -7 21 -77 2 -129 16 -153 18 -30 1 106 1
108 24 105 21 -3 22 -8 27 -123 l6 -120 2 116 c2 115 10 143 38 132 11 -4 14
-33 15 -122 2 -134 16 -109 18 32 1 80 3 87 21 87 19 0 20 -7 20 -109 0 -63 4
-112 10 -116 6 -4 10 35 10 110 0 115 0 116 23 113 21 -3 22 -8 25 -93 4 -141
9 -151 11 -22 l1 117 25 0 25 0 1 -117 c2 -129 7 -119 11 22 3 89 3 90 30 93
24 3 26 0 26 -33 0 -20 2 -39 5 -42 3 -2 5 49 4 115 -2 134 5 152 58 152 53 0
68 -26 66 -118 -1 -76 -1 -79 21 -78 22 1 23 -2 29 -114 3 -79 6 -95 7 -50 4
125 13 170 33 170 17 0 19 -9 19 -110 0 -67 4 -110 10 -110 6 0 10 41 10 104
0 86 3 105 16 110 9 3 19 4 23 1 4 -2 9 -55 10 -117 1 -62 4 -115 7 -117 2 -2
4 48 4 112 0 64 4 118 9 121 5 4 16 3 25 0 13 -5 16 -27 18 -123 l2 -116 6
120 c5 112 6 120 25 120 18 0 20 -8 25 -105 l5 -105 9 103 c7 90 10 102 27
102 17 0 19 -8 19 -64 0 -35 3 -85 8 -112 6 -42 8 -33 12 66 5 107 6 115 25
115 19 0 20 -8 25 -120 l6 -120 2 116 c2 106 4 117 21 122 11 3 22 2 25 -1 3
-3 7 -57 7 -121 l2 -116 8 100 c4 55 6 108 3 118 -4 13 1 17 20 17 l26 0 0
-105 c0 -63 4 -105 10 -105 6 0 10 41 10 104 0 100 9 131 30 110 5 -5 13 -61
18 -124 l9 -115 2 117 c0 64 5 119 10 122 5 4 16 3 25 0 13 -5 16 -27 18 -123
l2 -116 5 115 c6 110 7 115 29 118 22 3 22 2 23 -115 1 -90 3 -109 10 -78 4
22 8 75 8 118 1 70 3 77 21 77 18 0 20 -7 21 -72 0 -40 4 -91 8 -113 7 -31 9
-15 10 72 0 61 5 114 10 117 5 4 16 3 25 0 12 -5 16 -28 19 -122 l3 -117 2
116 c2 96 5 118 18 123 9 3 20 4 25 0 5 -3 9 -57 9 -121 0 -64 2 -114 4 -112
3 4 15 152 16 207 0 15 6 22 20 22 19 0 20 -7 20 -97 0 -54 5 -105 10 -113 7
-10 10 21 10 98 0 112 0 113 23 110 21 -3 22 -8 28 -118 l5 -115 2 116 c2 106
4 117 21 122 11 3 22 2 25 -1 3 -3 7 -60 8 -126 l2 -121 6 120 c5 115 6 120
28 123 22 3 22 1 22 -97 0 -61 4 -101 10 -101 6 0 10 40 10 101 0 98 1 100 22
97 20 -3 22 -8 20 -63 -1 -33 2 -85 7 -115 8 -49 9 -42 10 63 l1 117 25 0 25
0 2 -122 2 -123 6 120 c5 115 6 120 28 123 22 3 22 2 23 -115 1 -96 3 -109 9
-68 5 28 9 80 9 118 1 60 3 67 21 67 18 0 20 -7 21 -87 2 -137 17 -157 18 -25
1 112 1 113 24 110 21 -3 22 -8 27 -123 l6 -120 4 120 c5 112 6 120 25 120 19
0 20 -9 26 -115 5 -125 7 -123 16 20 3 52 7 97 9 99 2 2 10 1 19 -2 12 -5 15
-25 15 -102 0 -57 4 -95 10 -95 6 0 10 38 10 94 0 52 4 98 10 101 21 13 35
-11 36 -60 0 -27 2 -77 4 -110 3 -47 5 -35 9 55 6 106 7 115 26 115 19 0 20
-8 25 -120 4 -68 7 -93 8 -59 1 34 5 89 8 123 6 50 10 61 25 61 17 0 19 -10
19 -112 0 -77 3 -108 10 -98 5 8 10 56 10 106 0 76 3 93 16 98 9 4 18 5 20 4
1 -2 6 -53 10 -113 3 -61 8 -112 10 -114 2 -2 4 45 4 106 0 60 3 112 6 115 3
3 14 4 25 1 17 -5 19 -16 20 -122 2 -134 8 -122 11 24 3 92 5 100 23 100 19 0
20 -8 25 -115 6 -130 20 -107 20 32 0 62 3 80 15 85 9 3 18 4 20 2 2 -2 6 -56
9 -118 4 -63 8 -117 11 -119 3 -3 5 47 5 110 0 106 2 116 19 121 11 3 22 2 25
-1 3 -3 7 -57 8 -121 l2 -116 6 120 c3 66 8 119 13 118 4 -2 14 -3 22 -3 12 0
15 -20 16 -112 1 -88 3 -104 10 -73 4 22 8 75 8 118 1 70 3 77 21 77 19 0 20
-7 20 -116 0 -74 4 -113 10 -109 6 3 10 52 10 111 l0 104 25 0 25 0 2 -117 2
-118 6 120 c5 112 6 120 25 120 19 0 20 -8 25 -120 6 -119 16 -80 19 73 1 35
4 42 21 42 19 0 20 -7 20 -117 0 -80 3 -113 10 -103 5 8 10 61 10 118 l0 102
25 0 26 0 -2 -110 c-2 -60 0 -113 4 -116 4 -4 7 45 7 108 0 116 5 132 38 121
9 -3 12 -37 12 -120 0 -64 2 -114 4 -112 2 2 6 53 9 113 3 59 10 113 15 118
24 24 32 -6 32 -118 0 -74 4 -113 10 -109 6 4 10 54 10 116 0 108 1 110 22
107 20 -3 22 -9 25 -112 2 -61 6 -112 8 -115 3 -2 5 48 5 112 l0 117 25 0 25
0 0 -122 c0 -67 2 -119 4 -117 2 2 6 54 8 115 5 117 10 136 33 127 12 -4 15
-26 15 -104 0 -59 4 -99 10 -99 6 0 10 40 10 99 0 80 3 100 15 105 21 8 24 -3
29 -127 2 -60 7 -111 10 -115 3 -3 6 49 6 116 l0 122 25 0 25 0 2 -122 2 -123
3 100 c4 126 8 145 33 145 19 0 20 -7 20 -115 0 -63 4 -115 8 -115 5 0 10 51
11 113 1 61 6 116 11 121 21 21 30 -10 31 -107 0 -56 4 -111 9 -122 5 -13 9
24 9 101 1 88 4 123 14 126 32 12 37 -3 39 -125 l2 -122 6 120 c5 112 6 120
25 120 19 0 20 -8 25 -120 5 -130 16 -118 19 22 2 89 11 117 32 96 7 -7 11
-49 10 -112 -2 -145 13 -149 19 -6 5 112 6 120 25 120 19 0 20 -8 25 -125 l6
-125 4 125 c5 117 6 125 25 125 19 0 20 -8 25 -120 5 -120 5 -120 12 -50 5 39
8 93 8 122 0 46 2 52 20 50 19 -1 20 -8 20 -114 0 -69 4 -113 10 -113 6 0 10
45 10 116 0 102 2 115 16 110 9 -3 20 -6 25 -6 5 0 10 -55 11 -122 l2 -123 6
125 c5 117 6 125 25 125 19 0 20 -8 25 -125 l5 -125 8 81 c5 44 8 96 7 115 -3
54 -1 59 20 59 19 0 20 -7 20 -114 0 -66 4 -117 10 -121 6 -4 10 35 10 109 0
63 4 117 9 120 5 4 16 3 25 0 12 -5 16 -29 19 -127 l3 -122 2 121 c2 101 5
123 18 128 9 3 20 4 25 0 5 -3 9 -57 9 -121 0 -64 2 -114 5 -111 3 2 7 53 10
113 3 60 9 113 14 118 23 23 31 -9 32 -131 1 -151 17 -129 18 26 1 84 4 104
17 109 26 10 33 -15 33 -131 1 -60 3 -112 6 -114 3 -3 5 49 5 115 0 111 2 121
19 126 11 3 22 2 25 -1 3 -3 6 -59 6 -125 0 -66 2 -118 4 -116 2 2 6 54 9 116
5 120 9 135 32 126 12 -4 15 -29 15 -125 0 -77 4 -117 10 -113 6 4 10 55 10
121 0 94 3 116 15 121 9 3 18 4 20 2 2 -3 6 -45 9 -94 9 -175 10 -179 16 -45
5 127 6 135 25 135 19 0 20 -8 25 -125 5 -114 12 -125 15 -25 5 150 4 145 25
145 19 0 20 -7 20 -114 0 -66 4 -117 10 -121 6 -4 10 39 10 120 0 112 2 126
16 121 9 -3 18 -6 20 -6 2 0 5 -39 5 -87 2 -141 16 -166 18 -31 0 64 5 119 10
122 5 4 16 3 25 0 13 -5 16 -25 16 -122 0 -63 2 -113 5 -111 2 3 5 53 6 112 2
91 5 109 19 117 10 5 20 6 24 3 3 -3 6 -58 7 -122 1 -138 16 -115 18 27 1 91
1 92 26 92 24 0 25 2 25 70 0 116 29 160 105 160 27 0 44 -8 66 -29 16 -16 29
-37 29 -45 0 -12 11 -16 50 -16 28 0 50 -4 50 -10 0 -15 275 -12 333 4 42 11
46 14 33 26 -33 27 -48 76 -44 147 2 37 6 75 8 83 6 19 -166 25 -1030 34 -652
6 -1140 13 -1500 21 -113 2 -450 7 -750 10 -300 3 -562 8 -582 10 l-38 5 0
-135 0 -135 -125 0 c-96 0 -125 3 -125 13 0 7 -16 19 -35 25 -29 11 -115 93
-115 111 0 10 87 62 117 70 18 5 28 14 28 27 0 18 -7 19 -123 16 -77 -3 -137
-9 -158 -18 -43 -18 -180 -18 -214 -1 -20 10 -126 15 -442 20 -229 4 -459 11
-510 16 -51 5 -151 15 -223 21 -71 6 -157 15 -190 20 -33 5 -91 12 -130 15
-233 17 -251 19 -210 26 29 5 25 6 -18 3 -47 -3 -303 17 -512 41 -27 3 -113
12 -190 20 -557 56 -750 77 -754 81 -2 2 13 5 35 5 l39 2 -40 7 -40 7 55 3
c53 3 54 4 12 7 -35 3 -42 7 -38 21 7 24 11 100 6 105 -3 3 -63 7 -135 11
-432 21 -536 26 -592 26 l-63 0 0 -147 1 -148 40 -45 c22 -25 51 -57 65 -72
13 -15 21 -29 17 -31 -20 -13 -151 -29 -403 -52 -471 -42 -430 -40 -429 -19 0
11 3 14 6 7 10 -25 22 -13 13 13 -14 35 -13 36 10 29 15 -5 18 -3 14 9 -3 9
-12 12 -21 9 -10 -4 -14 -2 -10 4 3 5 0 22 -8 37 -17 32 -10 62 11 46 7 -7 10
-19 8 -28 -4 -14 -3 -13 6 1 10 16 8 21 -9 34 -17 12 -20 18 -10 29 8 10 8 14
0 14 -7 0 -9 9 -6 23 10 43 12 85 4 98 -4 8 -3 19 3 27 9 10 9 15 -1 21 -8 6
-10 29 -5 89 4 45 10 79 15 76 13 -7 29 31 22 54 -5 22 -23 31 -23 11 0 -5 -5
-7 -11 -4 -6 5 -4 11 6 19 33 24 32 185 -1 172 -8 -3 -14 -1 -14 4 0 6 7 10
16 10 13 0 14 3 5 14 -8 10 -9 16 -1 21 7 4 5 11 -4 20 -15 15 -11 55 5 55 5
0 9 5 9 11 0 6 -7 8 -16 5 -15 -6 -15 -4 0 18 19 30 20 40 3 33 -15 -6 -21 29
-6 38 5 4 8 21 8 38 l-2 32 -7 -35 c-7 -34 -7 -33 -9 14 -1 42 1 47 14 36 20
-16 19 -6 -1 14 -14 15 -14 17 0 32 20 20 21 30 1 14 -12 -10 -15 -10 -15 0 0
7 8 19 17 26 17 13 17 13 1 14 -20 0 -24 15 -8 25 6 3 10 12 9 18 0 9 -2 9 -6
0 -2 -7 -9 -13 -14 -13 -6 0 -6 7 0 19 6 10 7 21 3 25 -3 4 0 11 8 16 13 9 13
10 0 10 -12 0 -15 16 -16 76 0 43 3 69 7 62 6 -9 9 -9 9 -1 0 6 -5 15 -12 19
-8 5 -6 10 8 15 14 6 15 8 3 8 -13 1 -15 10 -11 52 3 37 1 54 -9 60 -8 5 -9 9
-3 9 14 0 14 298 0 319 -6 10 -6 16 2 19 8 2 9 10 4 20 -5 9 -8 74 -8 144 1
71 -3 128 -8 128 -5 0 -3 6 3 13 6 8 9 16 6 18 -7 8 -19 648 -20 1044 0 598
19 1647 31 1666 3 5 0 9 -6 9 -7 0 -8 6 -2 18 4 9 8 108 7 219 -1 111 2 200 5
198 4 -2 7 2 7 10 0 8 -3 15 -6 15 -3 0 -6 37 -5 82 1 92 -8 148 -18 113 -3
-11 -6 -53 -6 -93 0 -41 -6 -80 -13 -88 -7 -8 -7 -14 -1 -14 5 0 12 -11 14
-25 9 -46 -11 -26 -46 48 -50 104 -51 136 -4 189 25 29 37 38 38 26 0 -9 -7
-23 -15 -32 -19 -18 -20 -56 -1 -56 17 0 26 64 26 197 l0 104 40 54 c22 30 50
57 63 59 12 3 140 15 285 27 144 13 262 27 262 32 0 6 -23 7 -55 3 -35 -4 -55
-2 -55 4 0 15 -40 12 -56 -5 -12 -11 -20 -12 -35 -4 -15 7 -24 7 -35 -2 -11
-9 -17 -9 -29 1 -8 6 -20 10 -27 7 -8 -4 -7 -6 5 -6 38 -2 14 -21 -25 -20 -33
0 -38 2 -23 9 l20 9 -20 0 c-15 1 -17 3 -6 10 9 6 6 9 -13 9 -14 0 -33 -9 -42
-19 -10 -11 -12 -19 -6 -19 7 0 12 4 12 9 0 5 7 11 15 15 10 4 15 -1 15 -15 0
-20 -4 -21 -64 -17 -36 2 -62 0 -60 -4 7 -11 -23 -10 -44 2 -9 5 -51 19 -94
29 -42 11 -90 27 -107 36 -30 15 -31 15 -31 -4z m21 -464 c-10 -9 -11 -8 -5 6
3 10 9 15 12 12 3 -3 0 -11 -7 -18z m23 -213 c3 -8 2 -12 -4 -9 -6 3 -10 10
-10 16 0 14 7 11 14 -7z m10 -89 c1 -13 9 -21 24 -23 29 -4 29 -27 0 -29 -13
-1 -28 -10 -35 -19 -20 -28 -25 -11 -17 67 6 63 8 70 17 49 6 -14 11 -34 11
-45z m56 -185 c0 -5 -5 -10 -11 -10 -5 0 -7 5 -4 10 3 6 8 10 11 10 2 0 4 -4
4 -10z m-24 -201 c13 -11 14 -9 9 12 -10 43 -12 98 -2 92 6 -4 7 8 3 30 -4 21
-2 38 4 42 7 4 10 -31 10 -104 0 -61 -4 -111 -8 -111 -24 0 -82 100 -82 142 0
16 10 44 23 61 l22 32 3 -92 c2 -67 7 -95 18 -104z m24 -65 c0 -8 -4 -12 -10
-9 -5 3 -10 10 -10 16 0 5 5 9 10 9 6 0 10 -7 10 -16z m-72 -1 c-1 -5 2 -29 6
-55 7 -38 12 -48 27 -48 11 0 19 -4 19 -10 0 -5 -9 -10 -19 -10 -11 0 -27 -10
-36 -22 -15 -22 -16 -19 -14 57 1 76 4 95 15 95 2 0 3 -3 2 -7z m66 -340 c-1
-43 -6 -79 -11 -80 -7 -3 -9 116 -3 155 0 1 4 2 8 2 4 0 7 -35 6 -77z m-40
-20 c-1 -49 -3 -92 -3 -98 -4 -23 -40 63 -41 93 0 34 24 92 39 92 4 0 7 -39 5
-87z m22 -131 c-10 -11 -16 -12 -16 -4 0 7 5 12 11 12 5 0 7 5 4 10 -3 6 -3
16 2 23 5 9 9 7 11 -7 2 -10 -3 -26 -12 -34z m-51 -12 c3 -5 1 -10 -4 -10 -6
0 -11 5 -11 10 0 6 2 10 4 10 3 0 8 -4 11 -10z m62 -22 c-3 -8 -6 -5 -6 6 -1
11 2 17 5 13 3 -3 4 -12 1 -19z m-55 -55 c2 -21 8 -38 13 -37 16 0 33 -20 27
-34 -2 -7 -12 -11 -21 -10 -9 2 -21 -3 -28 -12 -10 -12 -12 -1 -13 58 0 74 16
101 22 35z m16 -361 l-3 -47 -17 32 c-10 18 -18 51 -18 73 0 24 7 51 18 65
l17 23 3 -49 c2 -27 2 -71 0 -97z m28 -79 c-10 -10 -19 5 -10 18 6 11 8 11 12
0 2 -7 1 -15 -2 -18z m-19 -128 c26 -6 32 -25 7 -25 -8 0 -12 -4 -9 -10 3 -5
-2 -10 -13 -10 -15 0 -18 -6 -14 -29 2 -16 -1 -32 -7 -35 -11 -7 -13 11 -14
99 0 22 1 51 3 65 2 22 4 20 13 -12 7 -25 17 -38 34 -43z m-7 -270 c0 -52 -2
-95 -4 -95 -13 0 -46 72 -43 96 3 34 28 94 39 94 5 0 8 -43 8 -95z m0 -255
c29 0 32 -16 6 -30 -15 -8 -27 -27 -34 -54 l-10 -41 -2 35 c-1 19 -4 53 -5 75
-2 22 2 51 8 65 11 24 11 24 15 -12 2 -29 8 -38 22 -38z m0 -269 c0 -62 4 -91
13 -94 7 -3 5 -6 -5 -6 -22 -1 -51 53 -53 98 -2 33 22 91 38 91 4 0 7 -40 7
-89z m40 -121 c0 -5 -4 -10 -10 -10 -5 0 -10 5 -10 10 0 6 5 10 10 10 6 0 10
-4 10 -10z m0 -30 c0 -5 -5 -10 -11 -10 -5 0 -7 5 -4 10 3 6 8 10 11 10 2 0 4
-4 4 -10z m-60 -76 c0 -15 8 -24 25 -28 27 -7 34 -26 10 -26 -8 0 -15 -6 -15
-12 0 -9 -4 -8 -10 2 -8 12 -10 8 -11 -15 -1 -16 -1 -35 0 -42 1 -6 -2 -14 -7
-17 -5 -3 -8 5 -7 17 1 12 -1 27 -5 32 -9 13 -10 39 -4 94 4 31 8 40 15 30 5
-8 9 -24 9 -35z m-103 -46 c-3 -8 -6 -5 -6 6 -1 11 2 17 5 13 3 -3 4 -12 1
-19z m121 -300 l-3 -53 -22 36 c-13 20 -23 46 -23 58 0 12 10 41 23 64 l22 42
3 -47 c2 -26 2 -71 0 -100z m40 -9 c-3 -20 -5 -19 -9 9 -3 20 -2 29 4 23 5 -5
7 -19 5 -32z m2 -95 c0 -8 -5 -12 -10 -9 -6 4 -8 11 -5 16 9 14 15 11 15 -7z
m-63 -36 c-1 -48 4 -59 33 -64 17 -4 30 -9 30 -11 0 -14 -33 -34 -46 -29 -13
5 -15 1 -11 -21 3 -16 -1 -32 -9 -40 -12 -12 -14 -10 -15 19 -1 18 -2 52 -3
75 -1 40 8 83 18 83 2 0 4 -6 3 -12z m32 -338 c1 -55 -2 -100 -6 -100 -4 0
-16 14 -25 31 -28 48 -23 97 15 157 5 6 9 12 11 12 1 0 4 -45 5 -100z m41 50
c0 -5 -4 -10 -10 -10 -5 0 -10 5 -10 10 0 6 5 10 10 10 6 0 10 -4 10 -10z m0
-60 c0 -5 -2 -10 -4 -10 -3 0 -8 5 -11 10 -3 6 -1 10 4 10 6 0 11 -4 11 -10z
m-4 -147 c-10 -10 -19 5 -10 18 6 11 8 11 12 0 2 -7 1 -15 -2 -18z m-54 -78
c2 -13 11 -20 26 -19 30 2 28 -24 -2 -32 -23 -5 -42 -40 -26 -46 5 -2 2 -16
-5 -33 l-14 -30 0 30 c0 17 -3 53 -7 82 -7 55 1 93 15 77 5 -5 11 -18 13 -29z
m27 -317 c1 -72 -7 -83 -33 -43 -21 32 -20 85 2 131 l17 37 6 -29 c4 -16 7
-59 8 -96z m28 -84 c-3 -3 -12 -4 -19 -1 -8 3 -5 6 6 6 11 1 17 -2 13 -5z m13
-34 c0 -5 -4 -10 -10 -10 -5 0 -10 5 -10 10 0 6 5 10 10 10 6 0 10 -4 10 -10z
m-56 -92 c3 -10 15 -18 26 -18 36 0 14 -30 -25 -34 -5 -1 -10 -15 -9 -31 0
-17 -1 -22 -3 -12 -3 9 -9 17 -14 17 -10 0 -12 90 -2 116 7 19 10 14 27 -38z
m16 -295 c-1 -78 -3 -94 -12 -78 -6 11 -16 23 -21 26 -15 10 -10 84 8 118 8
17 18 31 20 31 3 0 5 -44 5 -97z m37 50 c-3 -10 -5 -4 -5 12 0 17 2 24 5 18 2
-7 2 -21 0 -30z m0 -135 c-3 -7 -5 -2 -5 12 0 14 2 19 5 13 2 -7 2 -19 0 -25z
m51 7 c3 -11 0 -15 -7 -10 -6 3 -9 10 -6 15 3 4 0 11 -5 13 -6 3 -5 4 2 3 7
-1 15 -11 16 -21z m-48 -55 c0 -5 -5 -10 -11 -10 -5 0 -7 5 -4 10 3 6 8 10 11
10 2 0 4 -4 4 -10z m41 -41 c-8 -22 -9 -22 -9 9 1 19 5 29 10 24 5 -5 5 -19
-1 -33z m-96 -39 c5 -21 13 -30 26 -30 10 0 19 -4 19 -9 0 -11 -30 -36 -30
-25 0 5 -5 2 -10 -6 -5 -8 -7 -25 -4 -36 3 -12 1 -25 -4 -28 -10 -6 -25 97
-20 142 3 31 15 27 23 -8z m105 -40 c0 -5 -5 -10 -11 -10 -5 0 -7 5 -4 10 3 6
8 10 11 10 2 0 4 -4 4 -10z m-78 -262 c-3 -102 -4 -103 -22 -78 -24 32 -29 92
-10 127 18 33 30 53 33 53 1 0 1 -46 -1 -102z m38 -148 c0 -5 -2 -10 -4 -10
-3 0 -8 5 -11 10 -3 6 -1 10 4 10 6 0 11 -4 11 -10z m5633 -171 c12 -15 17
-39 17 -80 0 -55 -1 -59 -24 -59 -22 0 -23 4 -23 54 0 67 -6 76 -49 76 l-34 0
0 -65 c0 -58 -2 -65 -20 -65 -18 0 -20 7 -20 86 l0 87 68 -7 c50 -5 71 -12 85
-27z m74 19 c6 -7 16 -37 24 -65 7 -29 16 -53 19 -53 4 0 15 27 25 60 14 45
23 60 37 60 23 0 23 -4 -4 -90 -20 -65 -24 -70 -50 -70 -15 0 -31 -1 -35 -2
-8 -4 -63 159 -55 166 9 10 29 7 39 -6z m203 -78 c0 -73 -2 -80 -20 -80 -22 0
-22 3 -24 98 -1 58 0 62 21 62 22 0 23 -3 23 -80z m160 70 c38 -21 46 -121 11
-139 -9 -5 -43 -11 -76 -12 l-60 -3 -2 82 -1 82 54 0 c31 0 64 -5 74 -10z
m110 -68 c0 -43 -3 -81 -6 -84 -3 -3 -13 -4 -24 -1 -16 4 -18 14 -15 81 2 43
4 78 4 80 1 1 10 2 21 2 18 0 20 -7 20 -78z m161 58 c13 -23 46 -102 54 -128
6 -22 5 -23 -16 -17 -13 4 -29 14 -37 21 -16 17 -69 15 -84 -3 -14 -17 -52
-17 -45 0 60 152 58 148 90 145 16 -2 34 -10 38 -18z m204 9 c11 -17 -1 -21
-15 -4 -8 9 -8 15 -2 15 6 0 14 -5 17 -11z m925 1 c0 -5 -4 -10 -10 -10 -5 0
-10 5 -10 10 0 6 5 10 10 10 6 0 10 -4 10 -10z m-603 -37 c-3 -10 -5 -4 -5 12
0 17 2 24 5 18 2 -7 2 -21 0 -30z m571 12 c-3 -3 -9 2 -12 12 -6 14 -5 15 5 6
7 -7 10 -15 7 -18z m-863 -15 c3 -5 1 -10 -4 -10 -6 0 -11 5 -11 10 0 6 2 10
4 10 3 0 8 -4 11 -10z m935 -10 c0 -5 -2 -10 -4 -10 -3 0 -8 5 -11 10 -3 6 -1
10 4 10 6 0 11 -4 11 -10z m-972 -54 c-7 -8 -15 -12 -17 -11 -5 6 10 25 20 25
5 0 4 -6 -3 -14z m-58 1 c0 -2 -11 -14 -24 -26 -19 -17 -26 -20 -32 -9 -4 7
-4 10 0 6 5 -4 17 2 29 13 20 18 27 23 27 16z m217 -44 c-3 -10 -5 -2 -5 17 0
19 2 27 5 18 2 -10 2 -26 0 -35z m973 11 c0 -3 -7 -1 -15 6 -8 7 -15 17 -15
22 0 5 7 3 15 -6 8 -8 15 -18 15 -22z m-1003 4 c-3 -8 -6 -5 -6 6 -1 11 2 17
5 13 3 -3 4 -12 1 -19z m-106 -5 c13 -16 12 -17 -3 -4 -10 7 -18 15 -18 17 0
8 8 3 21 -13z m366 -15 c-3 -7 -5 -2 -5 12 0 14 2 19 5 13 2 -7 2 -19 0 -25z
m30 10 c-3 -8 -6 -5 -6 6 -1 11 2 17 5 13 3 -3 4 -12 1 -19z m67 7 c3 -8 1
-15 -4 -15 -6 0 -10 7 -10 15 0 8 2 15 4 15 2 0 6 -7 10 -15z m163 -17 c-3 -7
-5 -2 -5 12 0 14 2 19 5 13 2 -7 2 -19 0 -25z m-183 -4 c3 -8 2 -12 -4 -9 -6
3 -10 10 -10 16 0 14 7 11 14 -7z m-7101 -210 c6 -192 2 -224 -23 -224 -7 0
-3 170 4 178 3 3 6 62 6 130 0 69 2 123 4 121 2 -2 6 -94 9 -205z m9160 109
c-13 -2 -33 -2 -45 0 -13 2 -3 4 22 4 25 0 35 -2 23 -4z m-9147 -382 c-4 -5
-1 -12 4 -14 6 -3 5 -4 -2 -3 -15 3 -23 26 -8 26 6 0 9 -4 6 -9z m24 -62 c0
-5 -7 -9 -15 -9 -8 0 -15 7 -15 15 0 9 6 12 15 9 8 -4 15 -10 15 -15z m339
-306 c-1 -22 -2 -23 -6 -8 -3 11 -10 23 -17 27 -7 5 -5 8 7 8 12 0 17 -7 16
-27z m-19 -30 c0 -13 -3 -13 -15 -3 -8 7 -12 16 -9 21 8 13 24 1 24 -18z
m-303 -9 c-3 -3 -12 -4 -19 -1 -8 3 -5 6 6 6 11 1 17 -2 13 -5z m370 -86 c-3
-7 -5 -2 -5 12 0 14 2 19 5 13 2 -7 2 -19 0 -25z m30 0 c-3 -7 -5 -2 -5 12 0
14 2 19 5 13 2 -7 2 -19 0 -25z m-220 -70 c-3 -7 -5 -2 -5 12 0 14 2 19 5 13
2 -7 2 -19 0 -25z m268 -1 c34 -4 32 -4 -12 -4 -40 0 -50 4 -46 15 4 8 8 10
12 4 3 -6 24 -12 46 -15z"/>
<path d="M7070 6900 c0 -43 3 -50 19 -50 38 0 51 12 51 44 0 38 -15 56 -47 56
-21 0 -23 -4 -23 -50z"/>
<path d="M7366 6915 c-20 -48 -21 -45 14 -45 34 0 38 13 16 55 l-15 28 -15
-38z"/>
<path d="M1378 13063 c7 -3 16 -2 19 1 4 3 -2 6 -13 5 -11 0 -14 -3 -6 -6z"/>
<path d="M9498 13063 c7 -3 16 -2 19 1 4 3 -2 6 -13 5 -11 0 -14 -3 -6 -6z"/>
<path d="M10333 13063 c9 -2 23 -2 30 0 6 3 -1 5 -18 5 -16 0 -22 -2 -12 -5z"/>
<path d="M10488 13063 c6 -2 18 -2 25 0 6 3 1 5 -13 5 -14 0 -19 -2 -12 -5z"/>
<path d="M8898 13053 c12 -2 32 -2 45 0 12 2 2 4 -23 4 -25 0 -35 -2 -22 -4z"/>
<path d="M9033 13053 c9 -2 23 -2 30 0 6 3 -1 5 -18 5 -16 0 -22 -2 -12 -5z"/>
<path d="M9768 13053 c7 -3 16 -2 19 1 4 3 -2 6 -13 5 -11 0 -14 -3 -6 -6z"/>
<path d="M9828 13053 c7 -3 16 -2 19 1 4 3 -2 6 -13 5 -11 0 -14 -3 -6 -6z"/>
<path d="M10018 13053 c12 -2 32 -2 45 0 12 2 2 4 -23 4 -25 0 -35 -2 -22 -4z"/>
<path d="M1745 13039 c-16 -6 -14 -8 13 -8 33 -1 41 4 20 12 -7 2 -22 1 -33
-4z"/>
<path d="M1800 13041 c0 -5 9 -7 20 -4 11 3 20 7 20 9 0 2 -9 4 -20 4 -11 0
-20 -4 -20 -9z"/>
<path d="M9458 13043 c12 -2 32 -2 45 0 12 2 2 4 -23 4 -25 0 -35 -2 -22 -4z"/>
<path d="M9538 13043 c6 -2 18 -2 25 0 6 3 1 5 -13 5 -14 0 -19 -2 -12 -5z"/>
<path d="M9648 13043 c6 -2 18 -2 25 0 6 3 1 5 -13 5 -14 0 -19 -2 -12 -5z"/>
<path d="M9308 13033 c6 -2 18 -2 25 0 6 3 1 5 -13 5 -14 0 -19 -2 -12 -5z"/>
<path d="M8888 13023 c6 -2 18 -2 25 0 6 3 1 5 -13 5 -14 0 -19 -2 -12 -5z"/>
<path d="M6946 13009 c3 -5 26 -9 51 -9 26 0 44 2 42 4 -9 8 -98 13 -93 5z"/>
<path d="M445 13001 c-35 -14 63 -22 129 -11 32 5 61 12 64 15 8 8 -171 4
-193 -4z"/>
<path d="M5328 13003 c6 -2 18 -2 25 0 6 3 1 5 -13 5 -14 0 -19 -2 -12 -5z"/>
<path d="M6568 12993 c7 -3 16 -2 19 1 4 3 -2 6 -13 5 -11 0 -14 -3 -6 -6z"/>
<path d="M6813 12993 c9 -2 23 -2 30 0 6 3 -1 5 -18 5 -16 0 -22 -2 -12 -5z"/>
<path d="M6888 12993 c7 -3 16 -2 19 1 4 3 -2 6 -13 5 -11 0 -14 -3 -6 -6z"/>
<path d="M4053 12983 c9 -2 23 -2 30 0 6 3 -1 5 -18 5 -16 0 -22 -2 -12 -5z"/>
<path d="M5368 12983 c6 -2 18 -2 25 0 6 3 1 5 -13 5 -14 0 -19 -2 -12 -5z"/>
<path d="M5503 12983 c20 -2 54 -2 75 0 20 2 3 4 -38 4 -41 0 -58 -2 -37 -4z"/>
<path d="M5648 12983 c7 -3 16 -2 19 1 4 3 -2 6 -13 5 -11 0 -14 -3 -6 -6z"/>
<path d="M6208 12983 c7 -3 16 -2 19 1 4 3 -2 6 -13 5 -11 0 -14 -3 -6 -6z"/>
<path d="M777 12969 c6 -6 31 -13 55 -15 24 -1 35 -1 25 2 -9 3 -15 10 -12 15
4 5 -13 9 -36 9 -32 0 -40 -3 -32 -11z"/>
<path d="M3868 12973 c12 -2 30 -2 40 0 9 3 -1 5 -23 4 -22 0 -30 -2 -17 -4z"/>
<path d="M5903 12973 c37 -2 96 -2 130 0 34 2 4 3 -68 3 -71 0 -99 -1 -62 -3z"/>
<path d="M6658 12973 c12 -2 30 -2 40 0 9 3 -1 5 -23 4 -22 0 -30 -2 -17 -4z"/>
<path d="M6768 12973 c28 -2 76 -2 105 0 28 2 5 3 -53 3 -58 0 -81 -1 -52 -3z"/>
<path d="M5138 12963 c12 -2 32 -2 45 0 12 2 2 4 -23 4 -25 0 -35 -2 -22 -4z"/>
<path d="M5323 12963 c9 -2 23 -2 30 0 6 3 -1 5 -18 5 -16 0 -22 -2 -12 -5z"/>
<path d="M5415 12960 c3 -5 10 -10 16 -10 5 0 9 5 9 10 0 6 -7 10 -16 10 -8 0
-12 -4 -9 -10z"/>
<path d="M5470 12960 c20 -13 50 -13 50 0 0 6 -15 10 -32 10 -25 0 -29 -3 -18
-10z"/>
<path d="M5560 12966 c0 -2 11 -6 25 -8 14 -3 25 -1 25 3 0 5 -11 9 -25 9 -14
0 -25 -2 -25 -4z"/>
<path d="M5648 12963 c7 -3 16 -2 19 1 4 3 -2 6 -13 5 -11 0 -14 -3 -6 -6z"/>
<path d="M6185 12960 c-13 -5 -14 -9 -5 -9 8 0 24 4 35 9 13 5 14 9 5 9 -8 0
-24 -4 -35 -9z"/>
<path d="M6303 12963 c15 -2 37 -2 50 0 12 2 0 4 -28 4 -27 0 -38 -2 -22 -4z"/>
<path d="M6408 12963 c18 -2 45 -2 60 0 15 2 0 4 -33 4 -33 0 -45 -2 -27 -4z"/>
<path d="M3308 12953 c6 -2 18 -2 25 0 6 3 1 5 -13 5 -14 0 -19 -2 -12 -5z"/>
<path d="M3408 12953 c6 -2 18 -2 25 0 6 3 1 5 -13 5 -14 0 -19 -2 -12 -5z"/>
<path d="M5848 12953 c6 -2 18 -2 25 0 6 3 1 5 -13 5 -14 0 -19 -2 -12 -5z"/>
<path d="M5300 12940 c0 -5 4 -10 9 -10 6 0 13 5 16 10 3 6 -1 10 -9 10 -9 0
-16 -4 -16 -10z"/>
<path d="M5698 12943 c12 -2 32 -2 45 0 12 2 2 4 -23 4 -25 0 -35 -2 -22 -4z"/>
<path d="M5128 12933 c6 -2 18 -2 25 0 6 3 1 5 -13 5 -14 0 -19 -2 -12 -5z"/>
<path d="M5378 12933 c12 -2 32 -2 45 0 12 2 2 4 -23 4 -25 0 -35 -2 -22 -4z"/>
<path d="M766 12892 c-3 -6 -2 -13 3 -16 5 -4 13 -2 16 4 4 7 11 8 18 2 7 -5
32 -6 57 -2 l45 7 -45 2 c-25 1 -55 4 -66 7 -12 3 -25 1 -28 -4z"/>
<path d="M4320 12892 c-150 -2 -169 -7 -170 -36 0 -5 70 -7 165 -4 93 4 168 2
171 -3 3 -5 -7 -9 -21 -9 -15 0 -24 -4 -20 -10 4 -6 -6 -10 -23 -10 -16 0 -37
-9 -47 -20 -22 -24 -43 -25 -91 -5 -39 16 -114 6 -139 -19 -20 -20 -90 -136
-128 -213 -18 -37 -45 -89 -60 -116 -14 -26 -31 -63 -37 -82 -6 -19 -16 -35
-21 -35 -6 0 -8 -4 -5 -9 4 -5 0 -11 -6 -14 -22 -7 -3 -18 58 -32 57 -13 86
-13 46 -1 -34 11 -39 57 -7 70 14 5 169 -30 255 -58 l45 -15 -55 -2 c-30 -2
-70 -3 -87 -2 -18 0 -33 -2 -33 -6 0 -20 190 -84 206 -69 18 18 247 685 239
698 -3 5 -22 8 -43 7 -20 -1 -107 -3 -192 -5z m169 -142 c-6 -25 -12 -56 -14
-70 -7 -43 -80 -232 -89 -230 -5 1 -13 -4 -17 -12 -29 -45 20 110 71 227 9 22
23 58 30 80 23 72 35 75 19 5z m-128 -387 c-12 -20 -14 -14 -5 12 4 9 9 14 11
11 3 -2 0 -13 -6 -23z"/>
<path d="M868 12843 c7 -3 16 -2 19 1 4 3 -2 6 -13 5 -11 0 -14 -3 -6 -6z"/>
<path d="M5084 12570 c-5 -5 -26 -12 -46 -14 -51 -7 -88 -28 -130 -74 -44 -48
-62 -101 -54 -153 7 -46 36 -109 49 -109 5 0 6 -7 3 -16 -3 -9 -2 -12 5 -9 6
4 18 0 27 -8 10 -9 38 -21 64 -28 145 -39 289 131 236 278 -7 18 -16 33 -20
33 -4 0 -8 6 -8 13 0 7 -9 18 -20 25 -11 6 -17 18 -14 26 3 8 -8 19 -29 30
-41 19 -49 20 -63 6z m49 -17 c-7 -2 -21 -2 -30 0 -10 3 -4 5 12 5 17 0 24 -2
18 -5z m4 -39 c109 -63 130 -199 44 -285 -106 -106 -283 -45 -305 105 -9 58
18 123 66 160 49 37 71 33 25 -5 -78 -64 -100 -162 -51 -226 37 -49 81 -73
132 -73 119 0 201 110 158 213 -21 49 -87 114 -128 126 -28 8 -29 9 -9 10 13
1 44 -10 68 -25z m-100 10 c-3 -3 -12 -4 -19 -1 -8 3 -5 6 6 6 11 1 17 -2 13
-5z m65 -86 c44 -25 48 -55 11 -74 -13 -6 -20 -14 -17 -17 4 -3 16 0 28 8 30
21 32 19 28 -24 -3 -33 -10 -44 -44 -66 -47 -31 -78 -28 -128 13 -30 26 -32
30 -19 50 8 12 21 22 29 22 13 0 13 1 0 10 -19 12 -33 13 -25 1 3 -5 1 -12 -5
-16 -5 -3 -10 1 -10 9 0 8 4 17 9 20 5 3 7 14 5 24 -3 12 7 24 33 39 48 28 56
28 105 1z"/>
<path d="M5058 12294 c-5 -4 -8 -16 -8 -28 0 -14 3 -17 11 -9 6 6 9 19 7 28
-1 9 -6 13 -10 9z"/>
<path d="M1450 12531 c0 -5 -3 -16 -6 -25 -5 -12 0 -16 18 -16 31 0 37 6 31
31 -5 19 -43 28 -43 10z"/>
<path d="M1029 12514 c5 -3 7 -22 4 -42 -4 -29 -3 -34 6 -26 16 14 10 67 -7
70 -7 1 -8 0 -3 -2z"/>
<path d="M2465 12500 c11 -5 27 -9 35 -9 9 0 8 4 -5 9 -11 5 -27 9 -35 9 -9 0
-8 -4 5 -9z"/>
<path d="M2584 12470 c38 -11 71 -19 73 -16 6 5 -56 23 -108 31 -18 3 -3 -4
35 -15z"/>
<path d="M9342 12360 c-12 -5 -28 -7 -36 -4 -8 3 -17 1 -21 -5 -4 -7 1 -9 12
-5 11 4 4 -8 -17 -28 -48 -47 -59 -69 -66 -137 -6 -49 -3 -66 17 -106 78 -157
282 -163 358 -10 32 63 36 105 17 162 -19 58 -77 119 -127 133 -41 12 -106 12
-137 0z m158 -52 c75 -38 112 -138 82 -219 -52 -135 -248 -157 -322 -37 -26
43 -26 62 0 22 32 -50 92 -84 147 -84 57 0 100 22 139 69 35 42 37 98 5 164
-24 50 -46 67 -112 91 -41 14 -42 15 -14 16 17 0 51 -10 75 -22z m-199 -32
c-31 -32 -66 -119 -55 -137 3 -5 0 -9 -5 -9 -16 0 -13 58 5 96 15 31 66 84 82
84 3 0 -9 -15 -27 -34z m99 24 c0 -5 -4 -10 -10 -10 -5 0 -10 5 -10 10 0 6 5
10 10 10 6 0 10 -4 10 -10z m75 -45 c14 -14 25 -34 25 -45 0 -10 4 -20 9 -22
13 -5 24 -48 12 -48 -5 0 -15 -16 -21 -35 -9 -28 -17 -35 -38 -35 -15 0 -45
-5 -66 -11 -39 -11 -40 -10 -73 28 -35 41 -36 59 -7 117 8 16 14 35 14 43 0 8
4 12 9 9 4 -3 28 1 52 8 59 19 55 19 84 -9z"/>
<path d="M9468 12173 c7 -3 16 -2 19 1 4 3 -2 6 -13 5 -11 0 -14 -3 -6 -6z"/>
<path d="M3980 12300 c0 -5 5 -10 11 -10 5 0 7 5 4 10 -3 6 -8 10 -11 10 -2 0
-4 -4 -4 -10z"/>
<path d="M1510 12263 c0 -5 44 -7 97 -5 181 5 199 8 51 10 -82 1 -148 -1 -148
-5z"/>
<path d="M2630 12240 c8 -5 20 -10 25 -10 6 0 3 5 -5 10 -8 5 -19 10 -25 10
-5 0 -3 -5 5 -10z"/>
<path d="M2678 12223 c7 -3 16 -2 19 1 4 3 -2 6 -13 5 -11 0 -14 -3 -6 -6z"/>
<path d="M2731 12206 c28 -26 301 -105 277 -81 -3 3 -70 26 -148 50 -79 24
-137 38 -129 31z"/>
<path d="M1435 12150 c-3 -6 5 -10 19 -10 14 0 28 5 31 10 3 6 -5 10 -19 10
-14 0 -28 -4 -31 -10z"/>
<path d="M3010 12110 c-12 -8 -11 -10 7 -10 12 0 28 -6 35 -13 7 -8 19 -12 26
-9 10 3 12 -5 8 -29 -11 -66 -46 -286 -66 -419 -12 -74 -37 -232 -56 -350
-187 -1150 -177 -1076 -164 -1155 6 -39 33 -205 60 -370 50 -306 82 -505 126
-790 101 -648 99 -637 120 -652 28 -20 44 -16 44 12 0 14 -16 132 -35 263 -20
130 -49 332 -66 447 -16 116 -45 314 -64 440 -19 127 -44 289 -54 360 -57 377
-55 346 -41 467 7 62 25 197 40 300 18 128 23 191 16 198 -7 7 -6 10 2 10 7 0
12 8 12 18 0 14 -2 15 -10 2 -20 -32 -10 33 11 66 19 32 18 61 -2 48 -6 -3 -8
4 -5 18 3 12 8 44 11 71 3 26 10 45 16 42 5 -4 7 14 4 42 -3 34 -2 41 4 23 6
-18 8 -3 8 50 0 42 12 135 27 210 50 251 83 438 91 515 4 33 14 80 22 103 13
39 13 46 -1 61 -9 10 -34 23 -55 29 -46 14 -52 14 -71 2z"/>
<path d="M1698 12043 c7 -3 16 -2 19 1 4 3 -2 6 -13 5 -11 0 -14 -3 -6 -6z"/>
<path d="M1778 12043 c7 -3 16 -2 19 1 4 3 -2 6 -13 5 -11 0 -14 -3 -6 -6z"/>
<path d="M1833 12043 c9 -2 25 -2 35 0 9 3 1 5 -18 5 -19 0 -27 -2 -17 -5z"/>
<path d="M1436 12021 c-9 -10 -19 -36 -22 -57 -4 -41 0 -37 10 6 3 14 15 35
26 48 11 12 17 22 12 22 -5 0 -17 -8 -26 -19z"/>
<path d="M1459 12001 c-21 -17 -24 -29 -28 -106 -2 -57 -6 -83 -12 -74 -6 9
-7 -5 -4 -36 10 -87 25 -129 50 -139 33 -12 419 -6 445 7 37 18 49 68 49 202
1 177 20 165 -253 165 -205 0 -226 -2 -247 -19z m362 -60 c64 -2 73 -17 70
-117 -1 -54 -7 -92 -14 -96 -7 -4 -86 -8 -176 -8 -203 0 -201 -1 -201 112 0
62 4 82 18 96 19 19 28 19 303 13z"/>
<path d="M1859 11785 c-3 -21 -11 -31 -29 -36 l-25 -7 27 -1 c21 -1 29 5 34
24 3 13 4 30 1 37 -2 7 -6 0 -8 -17z"/>
<path d="M1533 11543 c9 -2 25 -2 35 0 9 3 1 5 -18 5 -19 0 -27 -2 -17 -5z"/>
<path d="M1680 11535 c-16 -9 -19 -14 -9 -15 8 0 24 7 35 15 24 18 7 19 -26 0z"/>
<path d="M1743 11543 c9 -2 23 -2 30 0 6 3 -1 5 -18 5 -16 0 -22 -2 -12 -5z"/>
<path d="M1808 11543 c6 -2 18 -2 25 0 6 3 1 5 -13 5 -14 0 -19 -2 -12 -5z"/>
<path d="M1432 11523 c-11 -10 -23 -29 -27 -43 -6 -22 -4 -21 14 7 11 17 28
36 38 42 10 6 13 11 7 11 -7 0 -21 -8 -32 -17z"/>
<path d="M1555 11522 c-120 -4 -134 -23 -141 -187 -2 -55 -6 -106 -9 -112 -2
-7 0 -13 6 -13 6 0 8 -4 5 -8 -3 -5 4 -23 14 -40 19 -31 21 -32 94 -32 52 0
84 5 106 18 29 16 31 16 41 0 9 -15 25 -18 114 -18 95 0 106 2 132 24 28 24
28 24 31 171 5 197 6 195 -129 195 -87 0 -104 -3 -127 -21 l-27 -21 -20 24
c-18 21 -27 23 -90 20z m185 -46 c-4 -4 -16 -4 -26 2 -16 9 -14 10 8 9 15 -1
23 -6 18 -11z m-120 -6 c13 -8 13 -10 -2 -10 -9 0 -20 5 -23 10 -8 13 5 13 25
0z m88 -30 c-7 -10 -14 -18 -15 -16 -6 6 9 36 18 36 5 0 4 -9 -3 -20z m-75
-25 c2 -11 3 -58 2 -104 -3 -94 -8 -101 -70 -101 -67 1 -75 14 -75 117 0 58 4
93 12 101 8 8 34 12 70 10 48 -2 58 -6 61 -23z m25 0 c-3 -3 -9 2 -12 12 -6
14 -5 15 5 6 7 -7 10 -15 7 -18z m213 4 c13 -21 11 -183 -3 -197 -15 -15 -112
-16 -139 -2 -17 9 -19 22 -19 103 0 61 4 97 13 106 17 18 135 10 148 -10z
m-201 -29 c0 -5 -2 -10 -4 -10 -3 0 -8 5 -11 10 -3 6 -1 10 4 10 6 0 11 -4 11
-10z m253 -10 c3 -11 1 -18 -4 -14 -5 3 -9 12 -9 20 0 20 7 17 13 -6z m-243
-34 c0 -3 -4 -8 -10 -11 -5 -3 -10 -1 -10 4 0 6 5 11 10 11 6 0 10 -2 10 -4z
m-200 -126 c0 -5 -7 -7 -15 -4 -8 4 -15 8 -15 10 0 2 7 4 15 4 8 0 15 -4 15
-10z"/>
<path d="M1611 11267 c-1 -10 -11 -22 -23 -27 l-23 -9 23 0 c24 -1 38 19 29
41 -3 8 -6 6 -6 -5z"/>
<path d="M1850 11261 c0 -6 -10 -16 -22 -21 l-23 -9 23 0 c22 -1 41 23 28 36
-3 4 -6 1 -6 -6z"/>
<path d="M1798 11033 c6 -2 18 -2 25 0 6 3 1 5 -13 5 -14 0 -19 -2 -12 -5z"/>
<path d="M1875 11022 c-3 -4 -94 -5 -200 -4 -208 4 -259 -3 -271 -40 -11 -34
-11 -149 -1 -230 14 -116 6 -112 262 -116 l213 -3 31 28 31 28 2 140 c2 145
-4 175 -41 194 -10 6 -22 7 -26 3z m-17 -104 c13 -11 17 -42 5 -35 -5 3 -9 -8
-10 -24 -1 -17 2 -27 7 -24 14 9 0 -55 -18 -85 -14 -23 -14 -24 1 -11 15 11
17 11 17 -2 0 -9 -9 -19 -21 -22 -26 -9 -319 5 -339 15 -22 12 -15 180 8 198
13 10 52 12 177 7 88 -4 166 -12 173 -17z m-408 -152 c0 -3 -4 -8 -10 -11 -5
-3 -10 -1 -10 4 0 6 5 11 10 11 6 0 10 -2 10 -4z"/>
<path d="M2970 11020 c0 -5 5 -10 11 -10 5 0 7 5 4 10 -3 6 -8 10 -11 10 -2 0
-4 -4 -4 -10z"/>
<path d="M2970 10974 c0 -8 5 -12 10 -9 6 3 10 10 10 16 0 5 -4 9 -10 9 -5 0
-10 -7 -10 -16z"/>
<path d="M1399 10516 c-2 -2 -3 -44 -1 -93 l3 -88 39 3 c38 4 39 5 42 44 l3
40 225 2 225 1 3 40 3 40 -243 3 c-134 2 -255 5 -269 8 -14 2 -28 2 -30 0z"/>
<path d="M1885 9966 c-17 -13 -61 -42 -100 -64 -94 -56 -105 -64 -105 -79 0
-22 -19 -24 -47 -5 -111 77 -230 152 -240 152 -22 0 -16 -77 9 -105 12 -14 25
-25 29 -25 4 0 31 -16 60 -35 30 -19 59 -35 66 -35 19 0 22 -14 5 -30 -14 -13
-15 -12 -9 4 5 13 -4 9 -32 -13 -21 -17 -44 -31 -50 -31 -6 0 -11 -4 -11 -8 0
-5 -16 -17 -35 -28 -34 -18 -35 -21 -35 -76 0 -32 3 -58 7 -58 3 0 62 36 129
80 112 72 164 95 164 71 0 -10 153 -111 170 -111 6 0 8 -4 5 -10 -4 -6 1 -7
11 -3 12 4 15 3 10 -5 -5 -8 -1 -10 10 -5 10 4 15 2 11 -3 -3 -6 3 -11 14 -11
16 -2 19 5 19 42 l0 44 -85 56 c-47 30 -89 55 -95 55 -30 0 0 33 80 85 l90 60
0 52 c0 28 -4 54 -8 57 -4 2 -21 -6 -37 -18z"/>
<path d="M1392 9288 l2 -183 6 175 6 175 3 -170 c2 -93 4 -174 6 -180 1 -5 3
-20 3 -32 2 -19 8 -23 37 -23 l35 0 0 80 0 80 225 0 225 0 0 45 0 44 -57 3
c-32 2 -131 1 -220 -2 -134 -4 -164 -2 -168 9 -3 8 -8 47 -12 87 l-6 74 -43 0
-44 0 2 -182z"/>
<path d="M1390 9080 c0 -5 5 -10 10 -10 6 0 10 5 10 10 0 6 -4 10 -10 10 -5 0
-10 -4 -10 -10z"/>
<path d="M1634 8949 c-17 -7 -17 -8 -1 -8 15 -1 17 -13 17 -101 l0 -100 35 0
34 0 3 63 3 62 61 3 c86 4 94 -6 94 -113 0 -91 -7 -126 -21 -103 -7 10 -9 10
-9 -3 0 -8 -10 -25 -23 -37 -22 -20 -33 -22 -158 -22 -93 0 -140 4 -151 13
-14 10 -18 42 -24 175 l-7 162 -43 0 -44 0 1 -172 c1 -180 7 -225 29 -220 7 2
10 -3 7 -10 -7 -18 1 -19 218 -24 l190 -5 53 50 c58 56 55 46 53 216 -3 129
-13 161 -54 169 -39 9 -244 12 -263 5z m-217 -106 c-2 -16 -4 -3 -4 27 0 30 2
43 4 28 2 -16 2 -40 0 -55z m0 -55 c-3 -8 -6 -5 -6 6 -1 11 2 17 5 13 3 -3 4
-12 1 -19z"/>
<path d="M1633 8835 c0 -22 2 -30 4 -17 2 12 2 30 0 40 -3 9 -5 -1 -4 -23z"/>
<path d="M1632 8755 c0 -16 2 -22 5 -12 2 9 2 23 0 30 -3 6 -5 -1 -5 -18z"/>
<path d="M1863 8715 c0 -22 2 -30 4 -17 2 12 2 30 0 40 -3 9 -5 -1 -4 -23z"/>
<path d="M18697 8732 c12 -11 19 -23 15 -26 -10 -11 20 -26 51 -26 42 0 33 13
-30 43 -43 20 -52 23 -36 9z"/>
<path d="M18848 8653 c7 -3 16 -2 19 1 4 3 -2 6 -13 5 -11 0 -14 -3 -6 -6z"/>
<path d="M9384 8411 c3 -4 -12 -13 -34 -20 -34 -10 -82 -48 -116 -92 -15 -20
-34 -101 -29 -124 2 -11 6 -32 10 -47 3 -15 20 -44 37 -64 34 -39 150 -102
156 -84 2 5 12 10 23 10 86 0 179 107 179 206 0 87 -67 179 -143 198 -15 4
-25 11 -22 16 4 6 -9 10 -30 10 -20 0 -34 -4 -31 -9z m157 -82 c54 -54 65
-143 27 -219 -52 -102 -200 -120 -284 -34 -78 81 -70 213 16 272 51 34 54 26
6 -18 -65 -60 -88 -161 -36 -157 14 1 24 15 36 52 9 27 23 56 32 63 9 6 41 12
73 12 l57 0 32 -50 c18 -27 36 -47 41 -44 5 3 9 -2 9 -10 0 -10 6 -13 15 -10
19 8 19 47 0 85 -19 36 -85 85 -127 94 -20 5 -26 10 -18 15 21 13 83 -13 121
-51z"/>
<path d="M18681 8244 c0 -11 3 -14 6 -6 3 7 2 16 -1 19 -3 4 -6 -2 -5 -13z"/>
<path d="M4991 8209 c-77 -23 -141 -110 -141 -191 0 -33 27 -99 52 -128 80
-95 226 -105 302 -19 35 39 47 73 48 134 1 49 -28 125 -52 140 -6 4 -8 11 -4
16 3 5 2 8 -3 7 -4 -2 -24 7 -43 19 -42 26 -113 36 -159 22z m39 -34 c-7 -8
-18 -15 -25 -15 -41 0 -105 -95 -104 -155 l1 -30 10 28 c6 18 15 26 24 23 17
-7 19 10 2 18 -10 5 -10 7 -1 12 7 3 9 12 6 20 -5 13 8 19 30 15 5 -1 6 3 3 8
-3 5 4 11 17 15 16 4 19 8 9 14 -8 6 -2 9 18 9 16 0 28 -3 25 -5 -7 -7 38 -30
49 -24 4 2 2 9 -5 14 -11 8 -11 9 1 5 8 -2 14 -10 13 -16 -2 -6 4 -11 12 -11
8 0 15 -5 15 -11 0 -5 4 -8 9 -5 5 4 7 -2 5 -12 -3 -9 4 -27 15 -38 11 -12 17
-25 13 -28 -3 -4 2 -4 12 0 16 6 17 4 11 -17 -5 -16 -4 -21 3 -14 5 6 13 24
16 40 8 42 -39 116 -91 140 -28 14 -33 20 -20 23 25 5 78 -33 106 -76 48 -73
25 -189 -47 -237 -99 -66 -216 -35 -263 70 -21 46 -23 75 -8 128 14 50 55 95
104 112 51 18 50 18 35 0z"/>
<path d="M4917 7949 c4 -13 8 -18 11 -10 2 7 -1 18 -6 23 -8 8 -9 4 -5 -13z"/>
<path d="M18695 8210 c3 -5 8 -10 11 -10 2 0 4 5 4 10 0 6 -5 10 -11 10 -5 0
-7 -4 -4 -10z"/>
<path d="M4265 8185 c-5 -2 -45 -11 -87 -21 -78 -17 -100 -36 -55 -48 12 -3
60 -6 107 -6 46 0 80 -4 75 -8 -21 -19 -244 -74 -270 -68 -20 5 -31 2 -40 -11
-12 -16 -13 -15 -8 11 3 15 13 30 22 33 43 13 71 26 71 32 0 5 -158 7 -192 2
-22 -3 -8 -36 165 -393 l106 -218 113 -1 c62 -1 152 -3 200 -5 48 -2 90 0 92
5 5 8 -150 455 -216 624 -30 77 -41 86 -83 72z m-277 -117 c-6 -18 -57 -53
-65 -44 -4 4 0 12 10 17 9 6 23 16 30 24 15 17 30 19 25 3z m465 -565 c-7 -2
-19 -2 -25 0 -7 3 -2 5 12 5 14 0 19 -2 13 -5z"/>
<path d="M3990 8120 c-18 -12 -2 -12 25 0 13 6 15 9 5 9 -8 0 -22 -4 -30 -9z"/>
<path d="M18627 7799 c-3 -12 -10 -18 -16 -14 -6 3 -8 0 -5 -9 3 -8 -1 -28
-10 -44 -14 -27 -14 -35 4 -93 50 -171 48 -172 49 14 1 151 -7 204 -22 146z"/>
<path d="M18561 7663 c0 -4 4 -17 9 -28 8 -19 9 -19 9 2 1 12 -3 25 -9 28 -5
3 -10 3 -9 -2z"/>
<path d="M18561 7594 c0 -11 3 -14 6 -6 3 7 2 16 -1 19 -3 4 -6 -2 -5 -13z"/>
<path d="M18580 7590 c0 -5 5 -10 10 -10 6 0 10 5 10 10 0 6 -4 10 -10 10 -5
0 -10 -4 -10 -10z"/>
<path d="M18572 7545 c0 -16 2 -22 5 -12 2 9 2 23 0 30 -3 6 -5 -1 -5 -18z"/>
<path d="M18602 7540 c0 -14 2 -19 5 -12 2 6 2 18 0 25 -3 6 -5 1 -5 -13z"/>
<path d="M18560 7489 c0 -13 5 -31 10 -39 7 -11 8 -5 4 20 -8 43 -14 51 -14
19z"/>
<path d="M18478 7466 c-5 -24 -4 -24 18 -9 24 15 24 33 0 33 -8 0 -16 -11 -18
-24z"/>
<path d="M4694 7445 c38 -14 77 -25 87 -25 9 0 19 -4 21 -8 4 -12 731 -251
742 -244 10 6 -148 61 -177 62 -10 0 -16 4 -13 9 4 5 -8 12 -26 16 -46 10
-152 47 -158 55 -3 3 -32 12 -65 19 -77 17 -84 19 -62 20 17 1 17 2 2 17 -12
13 -19 14 -28 5 -15 -15 -28 -14 -22 2 6 16 -156 70 -181 60 -12 -4 -15 -3
-10 5 4 7 23 12 43 12 77 0 22 8 -97 13 l-125 7 69 -25z m83 -1 c-3 -3 -12 -4
-19 -1 -8 3 -5 6 6 6 11 1 17 -2 13 -5z m170 -60 c-3 -3 -12 -4 -19 -1 -8 3
-5 6 6 6 11 1 17 -2 13 -5z"/>
<path d="M18420 7450 c0 -5 5 -10 10 -10 6 0 10 5 10 10 0 6 -4 10 -10 10 -5
0 -10 -4 -10 -10z"/>
<path d="M2661 7424 c0 -11 3 -14 6 -6 3 7 2 16 -1 19 -3 4 -6 -2 -5 -13z"/>
<path d="M18615 7420 c-3 -5 1 -10 9 -10 9 0 16 -5 16 -12 0 -6 2 -9 5 -6 7 7
-5 38 -15 38 -5 0 -12 -4 -15 -10z"/>
<path d="M1111 7404 c0 -11 3 -14 6 -6 3 7 2 16 -1 19 -3 4 -6 -2 -5 -13z"/>
<path d="M17760 7409 c0 -5 5 -7 10 -4 6 3 10 8 10 11 0 2 -4 4 -10 4 -5 0
-10 -5 -10 -11z"/>
<path d="M18471 7394 c0 -11 3 -14 6 -6 3 7 2 16 -1 19 -3 4 -6 -2 -5 -13z"/>
<path d="M17498 7383 c7 -3 16 -2 19 1 4 3 -2 6 -13 5 -11 0 -14 -3 -6 -6z"/>
<path d="M17368 7353 c7 -3 16 -2 19 1 4 3 -2 6 -13 5 -11 0 -14 -3 -6 -6z"/>
<path d="M18460 7351 c0 -6 5 -13 10 -16 6 -3 10 1 10 9 0 9 -4 16 -10 16 -5
0 -10 -4 -10 -9z"/>
<path d="M18670 7289 c0 -16 4 -28 9 -25 8 5 3 56 -5 56 -2 0 -4 -14 -4 -31z"/>
<path d="M1110 7300 c0 -5 5 -10 11 -10 5 0 7 5 4 10 -3 6 -8 10 -11 10 -2 0
-4 -4 -4 -10z"/>
<path d="M2858 7293 c7 -3 16 -2 19 1 4 3 -2 6 -13 5 -11 0 -14 -3 -6 -6z"/>
<path d="M2708 7283 c12 -2 30 -2 40 0 9 3 -1 5 -23 4 -22 0 -30 -2 -17 -4z"/>
<path d="M4598 7283 c7 -3 16 -2 19 1 4 3 -2 6 -13 5 -11 0 -14 -3 -6 -6z"/>
<path d="M17560 7280 c-42 -7 -43 -7 -10 -9 19 -1 46 -4 60 -6 21 -5 22 -4 5
4 -17 8 -15 9 15 13 31 4 31 5 5 5 -16 0 -50 -3 -75 -7z"/>
<path d="M8320 7260 c0 -5 18 -10 40 -10 22 0 40 5 40 10 0 6 -18 10 -40 10
-22 0 -40 -4 -40 -10z"/>
<path d="M11138 7263 c12 -2 30 -2 40 0 9 3 -1 5 -23 4 -22 0 -30 -2 -17 -4z"/>
<path d="M11208 7263 c7 -3 16 -2 19 1 4 3 -2 6 -13 5 -11 0 -14 -3 -6 -6z"/>
<path d="M10973 7253 c9 -2 25 -2 35 0 9 3 1 5 -18 5 -19 0 -27 -2 -17 -5z"/>
<path d="M3178 7233 c7 -3 16 -2 19 1 4 3 -2 6 -13 5 -11 0 -14 -3 -6 -6z"/>
<path d="M3350 7222 c17 -10 219 -36 226 -29 3 3 -41 10 -98 17 -57 6 -112 14
-123 16 -15 4 -17 3 -5 -4z"/>
<path d="M1115 7209 c-4 -6 -5 -12 -2 -15 2 -3 7 2 10 11 7 17 1 20 -8 4z"/>
<path d="M3618 7213 c12 -2 32 -2 45 0 12 2 2 4 -23 4 -25 0 -35 -2 -22 -4z"/>
<path d="M18240 7200 c0 -17 7 -20 40 -20 33 0 40 3 40 20 0 17 -7 20 -40 20
-33 0 -40 -3 -40 -20z"/>
<path d="M18418 7203 c12 -2 32 -2 45 0 12 2 2 4 -23 4 -25 0 -35 -2 -22 -4z"/>
<path d="M17528 7183 c7 -3 16 -2 19 1 4 3 -2 6 -13 5 -11 0 -14 -3 -6 -6z"/>
<path d="M5576 7161 c-16 -6 -11 -10 26 -19 56 -14 68 -15 48 -2 -8 5 -25 10
-38 10 -13 0 -20 4 -17 10 7 11 7 11 -19 1z"/>
<path d="M5705 7110 c3 -5 14 -10 23 -10 15 0 15 2 2 10 -20 13 -33 13 -25 0z"/>
<path d="M1498 7063 c7 -3 16 -2 19 1 4 3 -2 6 -13 5 -11 0 -14 -3 -6 -6z"/>
<path d="M5755 7051 c-2 -4 10 -8 26 -9 16 -1 29 -1 29 2 0 7 -50 13 -55 7z"/>
<path d="M1398 7033 c7 -3 16 -2 19 1 4 3 -2 6 -13 5 -11 0 -14 -3 -6 -6z"/>
<path d="M1608 7013 c7 -3 16 -2 19 1 4 3 -2 6 -13 5 -11 0 -14 -3 -6 -6z"/>
<path d="M6240 7000 c0 -5 -8 -10 -18 -10 -25 0 -92 -48 -92 -67 0 -20 73 -93
94 -93 9 0 16 5 16 10 0 6 12 10 28 10 28 0 78 26 114 60 21 19 21 20 2 41
-39 43 -144 79 -144 49z m95 -51 l20 -20 -33 -29 c-18 -15 -50 -30 -70 -34
-33 -5 -40 -3 -64 26 l-28 32 28 18 c15 10 34 18 42 18 8 -1 3 -8 -12 -16 -34
-18 -35 -27 -5 -56 l22 -23 3 38 c4 41 8 44 32 22 18 -17 50 -11 50 9 0 14
-41 36 -66 36 -8 0 -13 4 -9 9 8 14 66 -5 90 -30z"/>
<path d="M1285 6990 c-12 -5 5 -7 45 -3 36 3 67 7 69 9 9 8 -95 2 -114 -6z"/>
<path d="M1238 6973 c7 -3 16 -2 19 1 4 3 -2 6 -13 5 -11 0 -14 -3 -6 -6z"/>
<path d="M6375 6875 c-17 -13 -53 -29 -80 -36 -59 -16 -59 -15 -51 -27 13 -21
216 35 216 60 0 8 -34 28 -47 28 -4 -1 -22 -12 -38 -25z"/>
<path d="M3890 6700 c0 -6 7 -10 15 -10 8 0 15 2 15 4 0 2 -7 6 -15 10 -8 3
-15 1 -15 -4z"/>
<path d="M3890 6595 c-11 -13 -7 -15 24 -15 37 0 48 13 20 24 -23 9 -30 8 -44
-9z"/>
<path d="M1138 6333 c12 -2 32 -2 45 0 12 2 2 4 -23 4 -25 0 -35 -2 -22 -4z"/>
<path d="M1602 6320 c0 -14 2 -19 5 -12 2 6 2 18 0 25 -3 6 -5 1 -5 -13z"/>
<path d="M1652 6180 c0 -14 2 -19 5 -12 2 6 2 18 0 25 -3 6 -5 1 -5 -13z"/>
<path d="M1611 6144 c0 -11 3 -14 6 -6 3 7 2 16 -1 19 -3 4 -6 -2 -5 -13z"/>
<path d="M1619 6075 c-4 -5 -9 -37 -12 -70 l-6 -60 14 55 c14 53 16 96 4 75z"/>
<path d="M1470 5605 c0 -27 2 -46 4 -44 8 8 10 78 3 85 -4 4 -7 -14 -7 -41z"/>
</g>
</svg>
