<?xml version="1.0" standalone="no"?>
<!DOCTYPE svg PUBLIC "-//W3C//DTD SVG 20010904//EN"
 "http://www.w3.org/TR/2001/REC-SVG-20010904/DTD/svg10.dtd">
<svg version="1.0" xmlns="http://www.w3.org/2000/svg"
 width="208.000000pt" height="285.000000pt" viewBox="0 0 208.000000 285.000000"
 preserveAspectRatio="xMidYMid meet">

<g transform="translate(0.000000,285.000000) scale(0.100000,-0.100000)"
fill="#000000" stroke="none">
<path d="M911 2750 c-140 -51 -241 -190 -241 -335 l0 -55 -134 0 c-122 0 -134
-2 -131 -17 2 -10 4 -291 4 -625 l1 -608 620 0 620 0 0 625 0 625 -130 0 -130
0 0 55 c0 239 -253 416 -479 335z m231 -78 c101 -44 164 -134 175 -248 l6 -64
-293 0 -293 0 6 65 c19 204 218 327 399 247z m92 -804 c-6 -46 -17 -123 -24
-171 l-12 -89 -32 31 c-18 17 -36 31 -42 31 -5 0 -43 -34 -84 -75 l-75 -75
-72 72 c-40 40 -73 77 -73 83 0 6 32 42 70 80 39 38 70 74 70 80 0 6 -14 24
-31 41 l-30 29 148 21 c81 12 159 22 174 23 l25 1 -12 -82z"/>
<path d="M202 2568 c-17 -17 -17 -339 0 -356 17 -17 42 -15 61 6 14 15 17 41
17 145 l0 127 129 0 c121 0 131 1 145 21 11 17 12 27 4 45 -11 24 -12 24 -178
24 -116 0 -170 -4 -178 -12z"/>
<path d="M1502 2556 c-8 -18 -7 -28 4 -45 14 -20 24 -21 145 -21 l129 0 0
-123 c0 -95 4 -128 16 -145 17 -24 43 -29 62 -10 17 17 17 339 0 356 -8 8 -62
12 -178 12 -166 0 -167 0 -178 -24z"/>
<path d="M202 1258 c-8 -8 -12 -63 -12 -180 l0 -168 27 -11 c17 -6 89 -9 176
-7 131 3 150 5 162 21 9 12 11 27 6 40 -8 21 -15 22 -145 25 l-136 3 0 125 c0
69 -5 134 -10 145 -12 21 -50 25 -68 7z"/>
<path d="M1790 1251 c-5 -11 -10 -76 -10 -145 l0 -126 -135 0 c-122 0 -135 -2
-145 -19 -13 -26 -3 -50 27 -62 32 -12 285 -12 317 1 l26 10 0 168 c0 117 -4
172 -12 180 -18 18 -56 14 -68 -7z"/>
<path d="M95 491 c-80 -33 -86 -175 -9 -210 79 -36 154 16 154 105 0 83 -72
135 -145 105z m68 -44 c46 -33 25 -137 -28 -137 -50 0 -70 93 -29 134 19 19
35 20 57 3z"/>
<path d="M413 485 c-2 -8 -3 -39 -1 -70 1 -30 1 -55 -2 -55 -3 0 -20 30 -38
66 -31 62 -34 65 -65 62 l-32 -3 2 -70 c1 -38 2 -87 2 -107 1 -31 5 -38 21
-38 18 0 20 7 20 81 l0 81 39 -73 c41 -78 59 -96 85 -86 13 5 16 23 16 111 0
96 -1 104 -21 109 -12 3 -22 0 -26 -8z"/>
<path d="M1262 488 c-23 -12 -36 -43 -30 -74 2 -10 21 -29 43 -41 23 -13 40
-30 40 -40 0 -15 -8 -18 -42 -16 -36 1 -43 -1 -43 -17 0 -24 37 -35 82 -26 44
9 58 24 58 61 0 35 -19 58 -63 74 -50 19 -24 58 30 45 22 -6 24 -4 21 17 -2
20 -9 24 -38 26 -19 1 -45 -3 -58 -9z"/>
<path d="M1685 486 c-37 -16 -55 -52 -55 -112 0 -137 189 -140 206 -4 4 35 0
52 -15 78 -32 50 -79 63 -136 38z m79 -45 c33 -36 20 -117 -20 -127 -36 -9
-64 20 -64 65 0 68 47 103 84 62z"/>
<path d="M1888 494 c-16 -5 -18 -19 -18 -115 l0 -109 25 0 c22 0 25 4 25 39 0
37 1 39 39 45 64 10 91 69 54 115 -18 21 -89 35 -125 25z m85 -56 c13 -20 -6
-48 -34 -48 -15 0 -19 7 -19 36 0 31 3 35 21 32 12 -2 27 -10 32 -20z"/>
<path d="M502 383 l3 -108 68 -3 c66 -3 67 -3 67 23 0 23 -3 25 -45 25 l-45 0
0 85 c0 84 0 85 -25 85 l-26 0 3 -107z"/>
<path d="M670 380 l0 -110 25 0 25 0 0 110 0 110 -25 0 -25 0 0 -110z"/>
<path d="M762 383 c3 -103 4 -108 26 -111 21 -3 22 -1 22 75 l0 78 38 -69 c40
-74 60 -93 86 -83 13 5 16 23 16 112 l0 105 -25 0 c-24 0 -25 -2 -25 -67 l0
-68 -37 68 c-35 62 -40 67 -71 67 l-33 0 3 -107z"/>
<path d="M990 380 l0 -110 70 0 c66 0 70 1 70 23 0 19 -5 22 -42 22 -39 0 -43
2 -46 28 -3 26 -1 27 37 27 34 0 41 3 41 20 0 17 -7 20 -40 20 -33 0 -40 3
-40 19 0 16 8 20 42 23 31 2 44 8 46 21 3 15 -5 17 -67 17 l-71 0 0 -110z"/>
<path d="M1410 380 l0 -110 25 0 c23 0 25 3 25 50 l0 50 39 0 40 0 3 -47 c3
-41 6 -48 26 -51 22 -3 22 -2 22 107 l0 111 -25 0 c-22 0 -25 -4 -25 -40 l0
-40 -40 0 -40 0 0 40 c0 36 -2 40 -25 40 l-25 0 0 -110z"/>
<path d="M403 184 c-4 -10 1 -22 10 -29 22 -16 22 -32 0 -38 -13 -4 -12 -5 5
-6 33 -2 40 28 12 49 -22 17 -22 18 -4 28 17 11 18 11 1 12 -10 0 -20 -7 -24
-16z"/>
<path d="M520 200 c-1 -3 -4 -24 -5 -47 -2 -40 0 -43 24 -42 16 1 19 3 9 6
-12 3 -18 17 -21 46 -2 23 -5 40 -7 37z"/>
<path d="M632 188 c-13 -13 -15 -37 -6 -62 9 -22 51 -20 64 3 14 27 13 37 -6
55 -19 19 -36 20 -52 4z m46 -31 c2 -18 -2 -29 -13 -33 -24 -9 -39 10 -31 41
9 35 40 30 44 -8z"/>
<path d="M778 189 c-21 -12 -24 -49 -6 -67 7 -7 22 -12 35 -12 18 0 23 6 23
25 0 16 -6 25 -16 25 -14 0 -14 -3 -4 -15 17 -20 4 -32 -18 -19 -25 16 -21 46
8 61 14 7 18 13 10 13 -8 -1 -23 -5 -32 -11z"/>
<path d="M907 158 c-19 -46 -15 -62 8 -32 15 19 15 19 30 0 8 -11 15 -14 15
-8 0 15 -27 82 -33 82 -2 0 -11 -19 -20 -42z m28 2 c3 -5 1 -10 -4 -10 -6 0
-11 5 -11 10 0 6 2 10 4 10 3 0 8 -4 11 -10z"/>
<path d="M1031 155 l1 -50 8 40 c5 22 4 44 -1 50 -5 5 -9 -11 -8 -40z"/>
<path d="M1297 180 c-6 -23 -37 -27 -37 -5 0 8 -4 15 -10 15 -5 0 -10 -18 -10
-41 0 -24 4 -38 10 -34 6 3 10 13 10 21 0 24 38 17 43 -8 2 -13 5 -2 6 25 1
50 -3 60 -12 27z"/>
<path d="M1380 155 c0 -43 1 -45 28 -44 23 2 24 2 5 6 -27 5 -31 30 -5 36 16
4 16 5 0 6 -10 0 -18 7 -18 15 0 8 8 17 18 19 13 4 11 5 -5 6 -21 1 -23 -4
-23 -44z"/>
<path d="M1497 193 c-11 -10 -8 -83 3 -83 6 0 10 10 10 23 l0 22 19 -24 18
-23 -1 33 c-2 50 -26 76 -49 52z m33 -24 c0 -5 -4 -9 -10 -9 -5 0 -10 7 -10
16 0 8 5 12 10 9 6 -3 10 -10 10 -16z"/>
<path d="M1617 193 c-4 -3 -7 -24 -7 -45 0 -35 2 -38 28 -37 16 1 20 3 10 6
-10 2 -18 11 -18 18 0 7 8 16 18 18 16 4 16 5 0 6 -10 0 -18 7 -18 15 0 8 8
17 18 19 14 4 13 5 -4 6 -11 0 -24 -2 -27 -6z"/>
<path d="M1077 158 c-3 -18 -1 -37 4 -43 5 -5 9 8 9 33 0 50 -6 54 -13 10z"/>
<path d="M1050 161 c0 -5 5 -13 10 -16 6 -3 10 -2 10 4 0 5 -4 13 -10 16 -5 3
-10 2 -10 -4z"/>
</g>
</svg>
